# This file uses meters as units for non-parametric coordinates.

mtllib rubble_type_2.mtl
g default
v 83.889102 0.000000 58.843033
v 36.709907 0.000000 53.248031
v 59.375780 33.544292 71.761434
v 36.709907 47.509722 53.248031
v 76.072310 38.945223 93.781077
v 31.114952 47.509722 100.427202
v 78.294147 0.000000 106.022204
v 31.114952 0.000000 100.427202
v 85.267834 0.000000 22.311447
v 48.613193 0.000000 -39.964414
v 47.060857 51.020918 4.521769
v 48.613193 72.262479 -39.964414
v 35.768214 59.235826 45.007990
v -13.662856 72.262479 -3.309586
v 22.991786 0.000000 58.966276
v -13.662856 0.000000 -3.309586
v -49.905673 27.784936 -118.746955
v -24.785853 51.675312 -151.629203
v -24.785853 66.440278 -106.187045
v -24.785853 27.784936 -78.102278
v -24.785853 -10.870599 -106.187045
v -24.785853 3.894561 -151.629203
v 15.859011 27.784936 -159.391631
v 15.858823 66.440278 -131.306865
v 15.859011 51.675312 -85.864707
v 15.858823 3.894561 -85.864707
v 15.858823 -10.870599 -131.306865
v 40.978643 27.784936 -118.746955
v 53.279799 0.000000 -95.827151
v 83.817811 0.000000 -161.319689
v 46.285111 51.020918 -137.388095
v 83.817811 72.262479 -161.319689
v 6.527951 59.235826 -123.748593
v 18.325179 72.262479 -191.857701
v -12.212879 0.000000 -126.365163
v 18.325179 0.000000 -191.857701
v 116.904309 0.000000 -171.811441
v 133.061347 0.000000 -206.462169
v 113.203604 26.994044 -193.800368
v 133.061347 38.232494 -206.462169
v 92.168827 31.340319 -186.584104
v 98.410549 38.232494 -222.618973
v 82.253511 0.000000 -187.968245
v 98.410549 0.000000 -222.618973
v 83.547585 0.000000 -206.479775
v 92.723865 0.000000 -317.643725
v 51.184624 78.754393 -262.913025
v 92.723865 111.541967 -317.643725
v 0.918434 91.434403 -221.894499
v -18.440063 111.541967 -326.820263
v -27.616319 0.000000 -215.656312
v -18.440063 0.000000 -326.820263
vt 0.375000 0.000000
vt 0.625000 0.000000
vt 0.625000 0.250000
vt 0.375000 0.250000
vt 0.625000 0.500000
vt 0.375000 0.500000
vt 0.625000 0.750000
vt 0.375000 0.750000
vt 0.625000 1.000000
vt 0.375000 1.000000
vt 0.875000 0.000000
vt 0.875000 0.250000
vt 0.125000 0.000000
vt 0.125000 0.250000
vt 0.375000 0.000000
vt 0.625000 0.000000
vt 0.625000 0.250000
vt 0.375000 0.250000
vt 0.625000 0.500000
vt 0.375000 0.500000
vt 0.625000 0.750000
vt 0.375000 0.750000
vt 0.625000 1.000000
vt 0.375000 1.000000
vt 0.875000 0.000000
vt 0.875000 0.250000
vt 0.125000 0.000000
vt 0.125000 0.250000
vt 1.000000 0.500000
vt 1.088104 0.823792
vt 0.838104 0.676208
vt 1.176208 0.500000
vt 1.088104 0.176208
vt 0.838104 0.323792
vt 0.588104 0.823792
vt 0.088104 0.823792
vt 0.176208 0.500000
vt 0.338104 0.676208
vt 0.088104 0.176208
vt 0.338104 0.323792
vt 0.588104 0.176208
vt 0.676208 0.500000
vt 0.500000 0.500000
vt 0.375000 0.000000
vt 0.625000 0.000000
vt 0.625000 0.250000
vt 0.375000 0.250000
vt 0.625000 0.500000
vt 0.375000 0.500000
vt 0.625000 0.750000
vt 0.375000 0.750000
vt 0.625000 1.000000
vt 0.375000 1.000000
vt 0.875000 0.000000
vt 0.875000 0.250000
vt 0.125000 0.000000
vt 0.125000 0.250000
vt 0.375000 0.000000
vt 0.625000 0.000000
vt 0.625000 0.250000
vt 0.375000 0.250000
vt 0.625000 0.500000
vt 0.375000 0.500000
vt 0.625000 0.750000
vt 0.375000 0.750000
vt 0.625000 1.000000
vt 0.375000 1.000000
vt 0.875000 0.000000
vt 0.875000 0.250000
vt 0.125000 0.000000
vt 0.125000 0.250000
vt 0.375000 0.000000
vt 0.625000 0.000000
vt 0.625000 0.250000
vt 0.375000 0.250000
vt 0.625000 0.500000
vt 0.375000 0.500000
vt 0.625000 0.750000
vt 0.375000 0.750000
vt 0.625000 1.000000
vt 0.375000 1.000000
vt 0.875000 0.000000
vt 0.875000 0.250000
vt 0.125000 0.000000
vt 0.125000 0.250000
vn 0.360403 0.252132 -0.898075
vn 0.360403 0.252132 -0.898075
vn 0.360403 0.252132 -0.898075
vn 0.360403 0.252132 -0.898075
vn 0.333447 0.934255 -0.126412
vn 0.333447 0.934255 -0.126412
vn 0.333447 0.934255 -0.126412
vn 0.333447 0.934255 -0.126412
vn 0.024376 0.140756 0.989744
vn 0.024376 0.140757 0.989744
vn 0.024376 0.140756 0.989744
vn 0.024376 0.140756 0.989744
vn 0.000000 -1.000000 0.000000
vn 0.000000 -1.000000 0.000000
vn 0.000000 -1.000000 0.000000
vn 0.000000 -1.000000 0.000000
vn -0.993042 0.000000 -0.117764
vn -0.993042 0.000000 -0.117764
vn -0.993042 0.000000 -0.117764
vn -0.993042 0.000000 -0.117764
vn 0.923245 0.342136 -0.174819
vn 0.923245 0.342136 -0.174819
vn 0.923245 0.342136 -0.174819
vn 0.923245 0.342136 -0.174819
vn 0.933049 0.252126 -0.256615
vn 0.933049 0.252126 -0.256615
vn 0.933049 0.252126 -0.256615
vn 0.933049 0.252126 -0.256615
vn 0.302438 0.934255 0.188943
vn 0.302438 0.934255 0.188943
vn 0.302438 0.934255 0.188943
vn 0.302438 0.934255 0.188943
vn -0.773153 0.140760 0.618402
vn -0.773153 0.140760 0.618402
vn -0.773153 0.140760 0.618402
vn -0.773153 0.140760 0.618402
vn 0.000000 -1.000000 0.000000
vn 0.000000 -1.000000 0.000000
vn 0.000000 -1.000000 0.000000
vn 0.000000 -1.000000 0.000000
vn -0.507245 0.000000 -0.861802
vn -0.507245 0.000000 -0.861802
vn -0.507245 0.000000 -0.861802
vn -0.507245 0.000000 -0.861802
vn 0.697920 0.342137 0.629166
vn 0.697920 0.342137 0.629166
vn 0.697920 0.342137 0.629166
vn 0.697920 0.342137 0.629166
vn -0.794655 0.577349 -0.187592
vn -0.794655 0.577349 -0.187592
vn -0.794655 0.577349 -0.187592
vn -0.794652 0.356829 0.491122
vn -0.794652 0.356829 0.491122
vn -0.794652 0.356829 0.491122
vn -0.794653 -0.356830 0.491121
vn -0.794653 -0.356830 0.491121
vn -0.794653 -0.356830 0.491121
vn -0.794655 -0.577350 -0.187592
vn -0.794655 -0.577350 -0.187592
vn -0.794655 -0.577350 -0.187592
vn -0.794654 0.000000 -0.607063
vn -0.794654 0.000000 -0.607063
vn -0.794654 0.000000 -0.607063
vn -0.187593 0.934172 -0.303532
vn -0.187593 0.934172 -0.303532
vn -0.187593 0.934172 -0.303532
vn -0.187592 0.577356 0.794651
vn -0.187591 0.577355 0.794651
vn -0.187592 0.577355 0.794651
vn -0.187594 -0.577343 0.794659
vn -0.187594 -0.577343 0.794659
vn -0.187594 -0.577343 0.794660
vn -0.187593 -0.934172 -0.303531
vn -0.187593 -0.934172 -0.303532
vn -0.187593 -0.934172 -0.303531
vn -0.187592 0.000000 -0.982247
vn -0.187592 0.000000 -0.982247
vn -0.187592 0.000000 -0.982247
vn 0.187592 0.577355 -0.794651
vn 0.187592 0.577355 -0.794651
vn 0.187592 0.577355 -0.794651
vn 0.187596 0.934170 0.303537
vn 0.187596 0.934170 0.303537
vn 0.187596 0.934170 0.303537
vn 0.187592 0.000000 0.982247
vn 0.187592 0.000000 0.982247
vn 0.187592 0.000000 0.982247
vn 0.187593 -0.934172 0.303531
vn 0.187593 -0.934172 0.303531
vn 0.187593 -0.934172 0.303532
vn 0.187592 -0.577356 -0.794651
vn 0.187592 -0.577356 -0.794651
vn 0.187592 -0.577356 -0.794650
vn 0.794653 0.356830 -0.491121
vn 0.794653 0.356830 -0.491121
vn 0.794653 0.356830 -0.491121
vn 0.794656 0.577350 0.187590
vn 0.794656 0.577350 0.187590
vn 0.794655 0.577350 0.187590
vn 0.794654 0.000000 0.607063
vn 0.794654 0.000000 0.607063
vn 0.794654 0.000000 0.607063
vn 0.794655 -0.577350 0.187592
vn 0.794655 -0.577350 0.187592
vn 0.794655 -0.577350 0.187592
vn 0.794653 -0.356830 -0.491121
vn 0.794653 -0.356830 -0.491121
vn 0.794653 -0.356830 -0.491121
vn 0.740192 0.252130 0.623335
vn 0.740192 0.252130 0.623335
vn 0.740192 0.252130 0.623335
vn 0.740192 0.252130 0.623335
vn 0.015718 0.934255 0.356260
vn 0.015718 0.934255 0.356260
vn 0.015718 0.934255 0.356260
vn 0.015718 0.934255 0.356260
vn -0.947663 0.140763 -0.286567
vn -0.947663 0.140763 -0.286567
vn -0.947663 0.140763 -0.286567
vn -0.947663 0.140763 -0.286567
vn 0.000000 -1.000000 0.000000
vn 0.000000 -1.000000 0.000000
vn 0.000000 -1.000000 0.000000
vn 0.000000 -1.000000 0.000000
vn 0.422599 0.000000 -0.906317
vn 0.422599 0.000000 -0.906317
vn 0.422599 0.000000 -0.906317
vn 0.422599 0.000000 -0.906317
vn -0.122868 0.342139 0.931582
vn -0.122868 0.342139 0.931582
vn -0.122868 0.342139 0.931582
vn -0.122868 0.342139 0.931582
vn 0.740193 0.252128 0.623334
vn 0.740193 0.252128 0.623334
vn 0.740193 0.252128 0.623334
vn 0.740193 0.252128 0.623334
vn 0.015719 0.934254 0.356261
vn 0.015719 0.934254 0.356261
vn 0.015719 0.934254 0.356261
vn 0.015719 0.934254 0.356261
vn -0.947663 0.140760 -0.286568
vn -0.947663 0.140760 -0.286568
vn -0.947663 0.140760 -0.286568
vn -0.947663 0.140760 -0.286568
vn 0.000000 -1.000000 0.000000
vn 0.000000 -1.000000 0.000000
vn 0.000000 -1.000000 0.000000
vn 0.000000 -1.000000 0.000000
vn 0.422594 0.000000 -0.906319
vn 0.422594 0.000000 -0.906319
vn 0.422594 0.000000 -0.906319
vn 0.422594 0.000000 -0.906319
vn -0.122865 0.342149 0.931578
vn -0.122865 0.342149 0.931578
vn -0.122865 0.342149 0.931578
vn -0.122865 0.342149 0.931578
vn 0.910359 0.252135 0.328138
vn 0.910359 0.252135 0.328138
vn 0.910359 0.252135 0.328138
vn 0.910359 0.252135 0.328138
vn 0.138226 0.934254 0.328729
vn 0.138226 0.934254 0.328729
vn 0.138226 0.934254 0.328729
vn 0.138226 0.934254 0.328729
vn -0.988244 0.140763 0.059664
vn -0.988244 0.140763 0.059664
vn -0.988244 0.140763 0.059664
vn -0.988244 0.140763 0.059664
vn 0.000000 -1.000000 0.000000
vn 0.000000 -1.000000 0.000000
vn 0.000000 -1.000000 0.000000
vn 0.000000 -1.000000 0.000000
vn 0.082270 0.000000 -0.996610
vn 0.082270 0.000000 -0.996610
vn 0.082270 0.000000 -0.996610
vn 0.082270 0.000000 -0.996610
vn 0.207638 0.342135 0.916423
vn 0.207638 0.342135 0.916423
vn 0.207638 0.342135 0.916422
vn 0.207638 0.342135 0.916422
s off
g Rocks_Rock6 rubble
usemtl rubble_og:initialShadingGroup
f 1/1/1 2/2/2 4/3/3 3/4/4
f 3/4/5 4/3/6 6/5/7 5/6/8
f 5/6/9 6/5/10 8/7/11 7/8/12
f 7/8/13 8/7/14 2/9/15 1/10/16
f 2/2/17 8/11/18 6/12/19 4/3/20
f 7/13/21 1/1/22 3/4/23 5/14/24
f 9/15/25 10/16/26 12/17/27 11/18/28
f 11/18/29 12/17/30 14/19/31 13/20/32
f 13/20/33 14/19/34 16/21/35 15/22/36
f 15/22/37 16/21/38 10/23/39 9/24/40
f 10/16/41 16/25/42 14/26/43 12/17/44
f 15/27/45 9/15/46 11/18/47 13/28/48
f 17/29/49 19/30/50 18/31/51
f 17/29/52 20/32/53 19/30/54
f 17/29/55 21/33/56 20/32/57
f 17/29/58 22/34/59 21/33/60
f 17/29/61 18/31/62 22/34/63
f 18/31/64 19/30/65 24/35/66
f 19/36/67 20/37/68 25/38/69
f 20/37/70 21/39/71 26/40/72
f 21/33/73 22/34/74 27/41/75
f 22/34/76 18/31/77 23/42/78
f 18/31/79 24/35/80 23/42/81
f 19/36/82 25/38/83 24/35/84
f 20/37/85 26/40/86 25/38/87
f 21/39/88 27/41/89 26/40/90
f 22/34/91 23/42/92 27/41/93
f 23/42/94 24/35/95 28/43/96
f 24/35/97 25/38/98 28/43/99
f 25/38/100 26/40/101 28/43/102
f 26/40/103 27/41/104 28/43/105
f 27/41/106 23/42/107 28/43/108
f 29/44/109 30/45/110 32/46/111 31/47/112
f 31/47/113 32/46/114 34/48/115 33/49/116
f 33/49/117 34/48/118 36/50/119 35/51/120
f 35/51/121 36/50/122 30/52/123 29/53/124
f 30/45/125 36/54/126 34/55/127 32/46/128
f 35/56/129 29/44/130 31/47/131 33/57/132
f 37/58/133 38/59/134 40/60/135 39/61/136
f 39/61/137 40/60/138 42/62/139 41/63/140
f 41/63/141 42/62/142 44/64/143 43/65/144
f 43/65/145 44/64/146 38/66/147 37/67/148
f 38/59/149 44/68/150 42/69/151 40/60/152
f 43/70/153 37/58/154 39/61/155 41/71/156
f 45/72/157 46/73/158 48/74/159 47/75/160
f 47/75/161 48/74/162 50/76/163 49/77/164
f 49/77/165 50/76/166 52/78/167 51/79/168
f 51/79/169 52/78/170 46/80/171 45/81/172
f 46/73/173 52/82/174 50/83/175 48/74/176
f 51/84/177 45/72/178 47/75/179 49/85/180
