# This file uses centimeters as units for non-parametric coordinates.

mtllib small_rock_asset.mtl
g default
v 17.031630 1.903073 3.763857
v 17.389904 1.903073 4.284131
v 17.375825 2.349086 3.895262
v 17.389904 2.534773 4.284131
v 17.449162 2.420897 3.535226
v 17.910178 2.534773 3.925857
v 17.551904 1.903073 3.405583
v 17.910178 1.903073 3.925857
vt 0.375000 0.000000
vt 0.625000 0.000000
vt 0.375000 0.250000
vt 0.625000 0.250000
vt 0.375000 0.500000
vt 0.625000 0.500000
vt 0.375000 0.750000
vt 0.625000 0.750000
vt 0.375000 1.000000
vt 0.625000 1.000000
vt 0.875000 0.000000
vt 0.875000 0.250000
vt 0.125000 0.000000
vt 0.125000 0.250000
vn -0.912471 0.252132 0.322219
vn -0.912471 0.252132 0.322219
vn -0.912471 0.252132 0.322219
vn -0.912471 0.252132 0.322219
vn -0.315091 0.934254 -0.166992
vn -0.315091 0.934254 -0.166992
vn -0.315091 0.934254 -0.166992
vn -0.315091 0.934254 -0.166992
vn 0.727291 0.140762 -0.671740
vn 0.727291 0.140762 -0.671740
vn 0.727291 0.140762 -0.671740
vn 0.727291 0.140762 -0.671740
vn 0.000000 -1.000000 0.000000
vn 0.000000 -1.000000 0.000000
vn 0.000000 -1.000000 0.000000
vn 0.000000 -1.000000 0.000000
vn 0.567158 0.000000 0.823609
vn 0.567158 0.000000 0.823609
vn 0.567158 0.000000 0.823609
vn 0.567158 0.000000 0.823609
vn -0.740833 0.342140 -0.578020
vn -0.740833 0.342140 -0.578020
vn -0.740833 0.342140 -0.578020
vn -0.740833 0.342140 -0.578020
s off
g Rock14 Group_1_Level
usemtl initialShadingGroup
f 1/1/1 2/2/2 4/4/3 3/3/4
f 3/3/5 4/4/6 6/6/7 5/5/8
f 5/5/9 6/6/10 8/8/11 7/7/12
f 7/7/13 8/8/14 2/10/15 1/9/16
f 2/2/17 8/11/18 6/12/19 4/4/20
f 7/13/21 1/1/22 3/3/23 5/14/24
