# This file uses meters as units for non-parametric coordinates.

mtllib cylindrical_extra_castle_building.mtl
g default
v 1015.386078 136.452235 -530.132202
v 863.739227 131.008341 -827.947449
v 627.542267 122.528376 -1064.296265
v 329.918427 111.843135 -1216.040222
v 0.000092 100.000025 -1268.328186
v -329.919220 88.155787 -1216.040222
v -627.543091 77.470545 -1064.296265
v -863.739014 68.990931 -827.947449
v -1015.386383 63.547389 -530.132202
v -1067.640533 61.671473 -200.000000
v -1015.386383 63.547389 130.131226
v -863.739014 68.990931 427.947510
v -627.543091 77.470545 664.294250
v -329.919708 88.155268 816.039307
v 0.000092 100.000025 868.328125
v 329.918427 111.843135 816.039307
v 627.542267 122.528376 664.294250
v 863.738739 131.008372 427.947510
v 1015.385590 136.452342 130.131226
v 1067.639740 138.328349 -200.000000
v 938.729340 2271.731822 -530.132202
v 787.082489 2266.287974 -827.947449
v 550.886078 2257.808238 -1064.296265
v 253.262177 2247.123667 -1216.040222
v -76.657135 2235.279185 -1268.328186
v -406.575928 2223.435191 -1216.040222
v -704.200317 2212.750132 -1064.296265
v -940.395782 2204.271128 -827.947449
v -1092.043610 2198.827037 -530.132202
v -1144.297272 2196.951060 -200.000000
v -1092.043610 2198.827037 130.131226
v -940.395782 2204.271128 427.947510
v -704.200317 2212.750132 664.294250
v -406.575928 2223.435191 816.039307
v -76.657135 2235.279185 868.328125
v 253.262177 2247.123667 816.039307
v 550.886078 2257.807994 664.294250
v 787.081512 2266.287486 427.947510
v 938.728851 2271.731822 130.131226
v 990.983002 2273.608042 -200.000000
v 0.000092 100.000025 -200.000000
v 929.138519 2538.905162 -530.132202
v 777.491302 2533.460581 -827.947449
v 541.294769 2524.981089 -1064.296265
v 243.670380 2514.296763 -1216.040222
v -86.248962 2502.452525 -1268.328186
v -416.168243 2490.608287 -1216.040222
v -713.791626 2479.922984 -1064.296265
v -949.986969 2471.444224 -827.947449
v -1101.634308 2465.999888 -530.132202
v -1153.889679 2464.123667 -200.000000
v -1101.634308 2465.999888 130.131226
v -949.986969 2471.444224 427.947510
v -713.792114 2479.923228 664.294250
v -416.168243 2490.608287 816.039307
v -86.248413 2502.452769 868.328125
v 243.669830 2514.296763 816.039307
v 541.294220 2524.981089 664.294250
v 777.490692 2533.460581 427.947510
v 929.137054 2538.905162 130.131226
v 981.391205 2540.780894 -200.000000
v 27.685364 3381.989146 -247.249878
v 5.981567 3381.209361 -289.873413
v -27.823364 3379.996470 -323.698853
v -70.419617 3378.467173 -345.417297
v -117.638763 3376.771617 -352.901001
v -164.856812 3375.076792 -345.417297
v -207.452515 3373.547251 -323.698853
v -241.256958 3372.333872 -289.872375
v -262.960724 3371.554576 -247.249878
v -270.440613 3371.286021 -200.000000
v -262.961243 3371.554820 -152.751099
v -241.256958 3372.333872 -110.128601
v -207.452515 3373.547251 -76.301086
v -164.856812 3375.076792 -54.583679
v -117.638184 3376.771617 -47.099976
v -70.419617 3378.467173 -54.583679
v -27.823364 3379.996470 -76.301086
v 5.981567 3381.209361 -110.126526
v 27.685364 3381.989146 -152.751099
v 35.163635 3382.257212 -200.000000
v 20.679535 3577.149058 -247.247803
v -1.025299 3576.369273 -289.872375
v -124.645111 3571.931285 -200.000000
v -34.829254 3575.155406 -323.698853
v -77.425964 3573.626353 -345.417297
v -124.644562 3571.931285 -352.901001
v -171.862122 3570.236949 -345.417297
v -214.459930 3568.707652 -323.698853
v -248.263306 3567.493785 -289.872375
v -269.967621 3566.713999 -247.249939
v -277.448578 3566.445445 -200.001038
v -269.966522 3566.714244 -152.750061
v -248.261719 3567.494029 -110.126526
v -214.459381 3568.707652 -76.301086
v -171.862122 3570.236949 -54.583679
v -124.644043 3571.931285 -47.099976
v -77.426514 3573.626353 -54.583679
v -34.829224 3575.155650 -76.301086
v -1.023682 3576.369273 -110.128601
v 20.679016 3577.148570 -152.752197
v 28.156189 3577.416880 -200.000000
v 1049.941376 2275.724253 -566.290222
v 881.685150 2269.684458 -896.724121
v 872.093842 2536.857066 -896.724121
v 1040.350067 2542.897593 -566.290222
v 619.618805 2260.275767 -1158.958923
v 610.027557 2527.448863 -1158.958923
v 289.396698 2248.420542 -1327.322998
v 279.805389 2515.593882 -1327.322998
v -76.657135 2235.279185 -1385.338379
v -86.248962 2502.452525 -1385.338379
v -442.710968 2222.138316 -1327.322998
v -452.302277 2489.311167 -1327.322998
v -772.933044 2210.282359 -1158.958923
v -782.524353 2477.455943 -1158.958923
v -1034.998322 2200.874888 -896.724121
v -1044.589142 2468.048472 -896.724121
v -1203.254547 2194.834849 -566.290222
v -1212.845367 2462.007456 -566.290222
v -1261.231842 2192.752818 -200.000000
v -1270.824249 2459.925669 -200.000000
v -1203.254547 2194.834605 166.290222
v -1212.845367 2462.007456 166.290222
v -1034.998810 2200.875132 496.723145
v -1044.588531 2468.048472 496.723145
v -772.933044 2210.282359 758.957886
v -782.524353 2477.455943 758.957886
v -442.711517 2222.138072 927.322998
v -452.302307 2489.311167 927.322998
v -76.657135 2235.279185 985.337402
v -86.248413 2502.452769 985.337402
v 289.397247 2248.421031 927.322998
v 279.805389 2515.593882 927.322998
v 619.618805 2260.275523 758.957886
v 610.027557 2527.449107 758.957886
v 881.683563 2269.683482 496.723145
v 872.093353 2536.856822 496.723145
v 1049.940765 2275.724253 166.290222
v 1040.348969 2542.897349 166.290222
v 1107.918060 2277.805796 -200.000000
v 1098.326263 2544.978648 -200.000000
vt 0.648603 0.107966
vt 0.626409 0.064408
vt 0.591842 0.029841
vt 0.548284 0.007647
vt 0.500000 -0.000000
vt 0.451716 0.007647
vt 0.408159 0.029841
vt 0.373591 0.064409
vt 0.351397 0.107966
vt 0.343750 0.156250
vt 0.351397 0.204534
vt 0.373591 0.248091
vt 0.408159 0.282659
vt 0.451716 0.304853
vt 0.500000 0.312500
vt 0.548284 0.304853
vt 0.591841 0.282659
vt 0.626409 0.248091
vt 0.648603 0.204534
vt 0.656250 0.156250
vt 0.375000 0.312500
vt 0.387500 0.312500
vt 0.400000 0.312500
vt 0.412500 0.312500
vt 0.425000 0.312500
vt 0.437500 0.312500
vt 0.450000 0.312500
vt 0.462500 0.312500
vt 0.475000 0.312500
vt 0.487500 0.312500
vt 0.500000 0.312500
vt 0.512500 0.312500
vt 0.525000 0.312500
vt 0.537500 0.312500
vt 0.550000 0.312500
vt 0.562500 0.312500
vt 0.575000 0.312500
vt 0.587500 0.312500
vt 0.600000 0.312500
vt 0.612500 0.312500
vt 0.625000 0.312500
vt 0.375000 0.688440
vt 0.387500 0.688440
vt 0.400000 0.688440
vt 0.412500 0.688440
vt 0.425000 0.688440
vt 0.437500 0.688440
vt 0.450000 0.688440
vt 0.462500 0.688440
vt 0.475000 0.688440
vt 0.487500 0.688440
vt 0.500000 0.688440
vt 0.512500 0.688440
vt 0.525000 0.688440
vt 0.537500 0.688440
vt 0.550000 0.688440
vt 0.562500 0.688440
vt 0.575000 0.688440
vt 0.587500 0.688440
vt 0.600000 0.688440
vt 0.612500 0.688440
vt 0.625000 0.688440
vt 0.648603 0.795466
vt 0.626409 0.751908
vt 0.591842 0.717341
vt 0.548284 0.695147
vt 0.500000 0.687500
vt 0.451716 0.695147
vt 0.408159 0.717341
vt 0.373591 0.751909
vt 0.351397 0.795466
vt 0.343750 0.843750
vt 0.351397 0.892034
vt 0.373591 0.935591
vt 0.408159 0.970159
vt 0.451716 0.992353
vt 0.500000 1.000000
vt 0.548284 0.992353
vt 0.591841 0.970159
vt 0.626409 0.935591
vt 0.648603 0.892034
vt 0.656250 0.843750
vt 0.500000 0.150000
vt 0.500000 0.837500
vt 0.648603 0.892034
vt 0.626409 0.935591
vt 0.591841 0.970159
vt 0.548284 0.992353
vt 0.500000 1.000000
vt 0.451716 0.992353
vt 0.408159 0.970159
vt 0.373591 0.935591
vt 0.351397 0.892034
vt 0.343750 0.843750
vt 0.351397 0.795466
vt 0.373591 0.751909
vt 0.408159 0.717341
vt 0.451716 0.695147
vt 0.500000 0.687500
vt 0.548284 0.695147
vt 0.591842 0.717341
vt 0.626409 0.751908
vt 0.648603 0.795466
vt 0.656250 0.843750
vt 0.648603 0.892034
vt 0.626409 0.935591
vt 0.591841 0.970159
vt 0.548284 0.992353
vt 0.500000 1.000000
vt 0.451716 0.992353
vt 0.408159 0.970159
vt 0.373591 0.935591
vt 0.351397 0.892034
vt 0.343750 0.843750
vt 0.351397 0.795466
vt 0.373591 0.751909
vt 0.408159 0.717341
vt 0.451716 0.695147
vt 0.500000 0.687500
vt 0.548284 0.695147
vt 0.591842 0.717341
vt 0.626409 0.751908
vt 0.648603 0.795466
vt 0.656250 0.843750
vt 0.648603 0.892034
vt 0.626409 0.935591
vt 0.591841 0.970159
vt 0.548284 0.992353
vt 0.500000 1.000000
vt 0.451716 0.992353
vt 0.408159 0.970159
vt 0.373591 0.935591
vt 0.351397 0.892034
vt 0.343750 0.843750
vt 0.351397 0.795466
vt 0.373591 0.751909
vt 0.408159 0.717341
vt 0.451716 0.695147
vt 0.500000 0.687500
vt 0.548284 0.695147
vt 0.591842 0.717341
vt 0.626409 0.751908
vt 0.648603 0.795466
vt 0.656250 0.843750
vt 0.648603 0.892034
vt 0.626409 0.935591
vt 0.626409 0.935591
vt 0.648603 0.892034
vt 0.591841 0.970159
vt 0.591841 0.970159
vt 0.548284 0.992353
vt 0.548284 0.992353
vt 0.500000 1.000000
vt 0.500000 1.000000
vt 0.451716 0.992353
vt 0.451716 0.992353
vt 0.408159 0.970159
vt 0.408159 0.970159
vt 0.373591 0.935591
vt 0.373591 0.935591
vt 0.351397 0.892034
vt 0.351397 0.892034
vt 0.343750 0.843750
vt 0.343750 0.843750
vt 0.351397 0.795466
vt 0.351397 0.795466
vt 0.373591 0.751909
vt 0.373591 0.751909
vt 0.408159 0.717341
vt 0.408159 0.717341
vt 0.451716 0.695147
vt 0.451716 0.695147
vt 0.500000 0.687500
vt 0.500000 0.687500
vt 0.548284 0.695147
vt 0.548284 0.695147
vt 0.591842 0.717341
vt 0.591842 0.717341
vt 0.626409 0.751908
vt 0.626409 0.751908
vt 0.648603 0.795466
vt 0.648603 0.795466
vt 0.656250 0.843750
vt 0.656250 0.843750
vn 0.950445 0.034121 -0.309016
vn 0.808496 0.029025 -0.587786
vn 0.808496 0.029025 -0.587786
vn 0.950445 0.034121 -0.309016
vn 0.587406 0.021088 -0.809017
vn 0.587407 0.021088 -0.809017
vn 0.308818 0.011087 -0.951057
vn 0.308818 0.011087 -0.951057
vn 0.000000 -0.000000 -1.000000
vn -0.000000 -0.000000 -1.000000
vn -0.308817 -0.011087 -0.951057
vn -0.308817 -0.011087 -0.951057
vn -0.587407 -0.021088 -0.809017
vn -0.587407 -0.021088 -0.809017
vn -0.808496 -0.029025 -0.587786
vn -0.808496 -0.029025 -0.587785
vn -0.950444 -0.034121 -0.309018
vn -0.950444 -0.034121 -0.309018
vn -0.999356 -0.035877 0.000000
vn -0.999356 -0.035877 0.000000
vn -0.950444 -0.034121 0.309018
vn -0.950444 -0.034121 0.309017
vn -0.808495 -0.029025 0.587786
vn -0.808496 -0.029025 0.587786
vn -0.587406 -0.021088 0.809017
vn -0.587406 -0.021088 0.809017
vn -0.308820 -0.011087 0.951056
vn -0.308820 -0.011087 0.951056
vn 0.000000 0.000000 1.000000
vn 0.000000 0.000000 1.000000
vn 0.308820 0.011087 0.951056
vn 0.308820 0.011087 0.951056
vn 0.587406 0.021088 0.809018
vn 0.587406 0.021088 0.809018
vn 0.808496 0.029025 0.587786
vn 0.808496 0.029025 0.587786
vn 0.950444 0.034121 0.309017
vn 0.950444 0.034121 0.309017
vn 0.999356 0.035877 0.000001
vn 0.999356 0.035877 0.000001
vn 0.035877 -0.999356 0.000000
vn 0.035877 -0.999356 0.000000
vn 0.035877 -0.999356 -0.000000
vn 0.035878 -0.999356 0.000001
vn 0.035876 -0.999356 0.000001
vn 0.035876 -0.999356 0.000000
vn 0.035878 -0.999356 -0.000000
vn 0.035878 -0.999356 -0.000000
vn 0.035877 -0.999356 0.000001
vn 0.035877 -0.999356 0.000001
vn 0.035877 -0.999356 0.000000
vn 0.035877 -0.999356 -0.000001
vn 0.035877 -0.999356 -0.000001
vn 0.035878 -0.999356 -0.000000
vn 0.035878 -0.999356 -0.000000
vn 0.035876 -0.999356 0.000000
vn 0.035876 -0.999356 -0.000001
vn 0.035878 -0.999356 -0.000001
vn 0.035877 -0.999356 -0.000000
vn 0.035877 -0.999356 0.000000
vn 0.035877 -0.999356 0.000000
vn -0.035881 0.999356 0.000004
vn -0.035883 0.999356 -0.000009
vn -0.035876 0.999356 -0.000000
vn -0.035877 0.999356 -0.000004
vn -0.035874 0.999356 0.000000
vn -0.035868 0.999357 -0.000001
vn -0.035868 0.999357 0.000001
vn -0.035877 0.999356 0.000006
vn -0.035881 0.999356 0.000009
vn -0.035880 0.999356 0.000004
vn -0.035878 0.999356 0.000000
vn -0.035879 0.999356 0.000000
vn -0.035878 0.999356 -0.000004
vn -0.035876 0.999356 -0.000009
vn -0.035868 0.999357 -0.000004
vn -0.035868 0.999357 0.000000
vn -0.035877 0.999356 0.000000
vn -0.035877 0.999356 0.000000
vn -0.035878 0.999356 0.000004
vn -0.035878 0.999356 -0.000004
vn -0.035877 0.999356 0.000000
vn 0.950445 0.034121 -0.309016
vn 0.808496 0.029024 -0.587786
vn 0.808496 0.029024 -0.587786
vn 0.950445 0.034121 -0.309016
vn 0.587406 0.021088 -0.809018
vn 0.587406 0.021088 -0.809017
vn 0.308818 0.011086 -0.951057
vn 0.308818 0.011086 -0.951057
vn 0.000000 0.000000 -1.000000
vn -0.000000 -0.000000 -1.000000
vn -0.308818 -0.011086 -0.951056
vn -0.308818 -0.011086 -0.951057
vn -0.587407 -0.021087 -0.809017
vn -0.587407 -0.021087 -0.809017
vn -0.808497 -0.029023 -0.587785
vn -0.808497 -0.029023 -0.587785
vn -0.950444 -0.034120 -0.309018
vn -0.950444 -0.034120 -0.309018
vn -0.999356 -0.035877 0.000000
vn -0.999356 -0.035877 0.000000
vn -0.950444 -0.034119 0.309018
vn -0.950444 -0.034119 0.309018
vn -0.808496 -0.029021 0.587785
vn -0.808496 -0.029021 0.587786
vn -0.587408 -0.021086 0.809016
vn -0.587408 -0.021086 0.809016
vn -0.308818 -0.011086 0.951056
vn -0.308818 -0.011086 0.951057
vn -0.000000 0.000000 1.000000
vn -0.000000 0.000000 1.000000
vn 0.308818 0.011087 0.951057
vn 0.308818 0.011087 0.951057
vn 0.587408 0.021087 0.809016
vn 0.587408 0.021087 0.809016
vn 0.808496 0.029023 0.587786
vn 0.808496 0.029023 0.587785
vn 0.950444 0.034120 0.309018
vn 0.950444 0.034120 0.309018
vn 0.999356 0.035878 0.000001
vn 0.999356 0.035878 0.000001
vn 0.630740 0.746046 -0.213503
vn 0.532665 0.742524 -0.406110
vn 0.532665 0.742524 -0.406111
vn 0.630740 0.746046 -0.213502
vn 0.379912 0.737040 -0.558963
vn 0.379911 0.737040 -0.558963
vn 0.187430 0.730130 -0.657100
vn 0.187431 0.730130 -0.657100
vn -0.025937 0.722470 -0.690916
vn -0.025937 0.722470 -0.690916
vn -0.239305 0.714810 -0.657100
vn -0.239306 0.714810 -0.657100
vn -0.431787 0.707900 -0.558962
vn -0.431787 0.707900 -0.558962
vn -0.584539 0.702415 -0.406111
vn -0.584539 0.702415 -0.406111
vn -0.682614 0.698895 -0.213506
vn -0.682613 0.698895 -0.213507
vn -0.716408 0.697682 -0.000001
vn -0.716408 0.697681 -0.000001
vn -0.682614 0.698894 0.213507
vn -0.682613 0.698894 0.213508
vn -0.584539 0.702415 0.406111
vn -0.584540 0.702415 0.406111
vn -0.431786 0.707899 0.558963
vn -0.431787 0.707899 0.558962
vn -0.239305 0.714810 0.657100
vn -0.239306 0.714810 0.657100
vn -0.025937 0.722470 0.690916
vn -0.025937 0.722470 0.690916
vn 0.187432 0.730130 0.657100
vn 0.187432 0.730130 0.657100
vn 0.379911 0.737039 0.558964
vn 0.379910 0.737039 0.558965
vn 0.532665 0.742524 0.406110
vn 0.532665 0.742524 0.406111
vn 0.630740 0.746045 0.213504
vn 0.630740 0.746045 0.213503
vn 0.664534 0.747258 0.000001
vn 0.664534 0.747258 0.000002
vn 0.950447 0.034125 -0.309010
vn 0.808494 0.029028 -0.587788
vn 0.808495 0.029028 -0.587787
vn 0.950447 0.034125 -0.309007
vn 0.587408 0.021089 -0.809016
vn 0.587408 0.021089 -0.809016
vn 0.308823 0.011087 -0.951055
vn 0.308823 0.011087 -0.951055
vn -0.000001 0.000000 -1.000000
vn -0.000001 0.000000 -1.000000
vn -0.308827 -0.011087 -0.951054
vn -0.308826 -0.011087 -0.951054
vn -0.587412 -0.021089 -0.809013
vn -0.587413 -0.021089 -0.809013
vn -0.808495 -0.029027 -0.587788
vn -0.808494 -0.029027 -0.587788
vn -0.950437 -0.034125 -0.309037
vn -0.950437 -0.034125 -0.309038
vn -0.999356 -0.035881 0.000003
vn -0.999356 -0.035881 0.000003
vn -0.950437 -0.034121 0.309041
vn -0.950436 -0.034121 0.309043
vn -0.808497 -0.029025 0.587784
vn -0.808496 -0.029025 0.587786
vn -0.587410 -0.021089 0.809015
vn -0.587410 -0.021089 0.809015
vn -0.308816 -0.011086 0.951057
vn -0.308815 -0.011086 0.951057
vn -0.000000 0.000000 1.000000
vn -0.000001 0.000000 1.000000
vn 0.308815 0.011087 0.951058
vn 0.308815 0.011087 0.951058
vn 0.587400 0.021089 0.809022
vn 0.587399 0.021089 0.809022
vn 0.808497 0.029027 0.587783
vn 0.808499 0.029027 0.587781
vn 0.950449 0.034124 0.309003
vn 0.950449 0.034124 0.309002
vn 0.999356 0.035880 0.000003
vn 0.999356 0.035880 0.000002
vn 0.035876 -0.999356 -0.000000
vn 0.035878 -0.999356 -0.000001
vn 0.035878 -0.999356 -0.000001
vn 0.035876 -0.999356 0.000000
vn -0.035878 0.999356 0.000001
vn -0.035877 0.999356 0.000000
vn -0.035877 0.999356 0.000000
vn -0.035878 0.999356 0.000001
vn 0.035877 -0.999356 -0.000000
vn 0.035877 -0.999356 -0.000000
vn -0.035878 0.999356 0.000001
vn -0.035878 0.999356 0.000001
vn 0.035877 -0.999356 0.000001
vn 0.035877 -0.999356 0.000001
vn -0.035877 0.999356 -0.000001
vn -0.035877 0.999356 -0.000001
vn 0.035877 -0.999356 0.000000
vn 0.035877 -0.999356 0.000000
vn -0.035877 0.999356 -0.000001
vn -0.035877 0.999356 -0.000001
vn 0.035877 -0.999356 -0.000002
vn 0.035877 -0.999356 -0.000002
vn -0.035877 0.999356 0.000002
vn -0.035877 0.999356 0.000002
vn 0.035878 -0.999356 -0.000000
vn 0.035878 -0.999356 -0.000000
vn -0.035875 0.999356 0.000001
vn -0.035875 0.999356 0.000001
vn 0.035876 -0.999356 0.000001
vn 0.035876 -0.999356 0.000001
vn -0.035874 0.999356 0.000001
vn -0.035874 0.999356 0.000001
vn 0.035876 -0.999356 -0.000000
vn 0.035876 -0.999356 -0.000000
vn -0.035876 0.999356 0.000001
vn -0.035876 0.999356 0.000001
vn 0.035878 -0.999356 -0.000001
vn 0.035878 -0.999356 -0.000001
vn -0.035877 0.999356 0.000000
vn -0.035877 0.999356 0.000000
vn 0.035877 -0.999356 0.000001
vn 0.035877 -0.999356 0.000001
vn -0.035876 0.999356 -0.000001
vn -0.035876 0.999356 -0.000001
vn 0.035876 -0.999356 0.000000
vn 0.035876 -0.999356 0.000000
vn -0.035875 0.999356 -0.000002
vn -0.035875 0.999356 -0.000002
vn 0.035877 -0.999356 -0.000001
vn 0.035877 -0.999356 -0.000001
vn -0.035876 0.999356 -0.000002
vn -0.035876 0.999356 -0.000002
vn 0.035877 -0.999356 0.000001
vn 0.035877 -0.999356 0.000001
vn -0.035877 0.999356 -0.000001
vn -0.035877 0.999356 -0.000001
vn 0.035877 -0.999356 0.000002
vn 0.035877 -0.999356 0.000002
vn -0.035877 0.999356 -0.000001
vn -0.035877 0.999356 -0.000001
vn 0.035877 -0.999356 0.000001
vn 0.035877 -0.999356 0.000001
vn -0.035877 0.999356 -0.000002
vn -0.035877 0.999356 -0.000002
vn 0.035876 -0.999356 0.000001
vn 0.035876 -0.999356 0.000001
vn -0.035878 0.999356 -0.000002
vn -0.035878 0.999356 -0.000002
vn 0.035876 -0.999356 -0.000000
vn 0.035876 -0.999356 -0.000000
vn -0.035877 0.999356 -0.000000
vn -0.035877 0.999356 -0.000000
vn 0.035876 -0.999356 -0.000001
vn 0.035876 -0.999356 -0.000001
vn -0.035875 0.999356 -0.000000
vn -0.035875 0.999356 0.000000
vn 0.035876 -0.999356 0.000000
vn 0.035876 -0.999356 0.000000
vn -0.035875 0.999356 0.000000
vn -0.035875 0.999356 0.000000
s 1
g pCylinder6
usemtl initialShadingGroup
f 1/21/1 2/22/2 22/43/3 21/42/4
f 2/22/2 3/23/5 23/44/6 22/43/3
f 3/23/5 4/24/7 24/45/8 23/44/6
f 4/24/7 5/25/9 25/46/10 24/45/8
f 5/25/9 6/26/11 26/47/12 25/46/10
f 6/26/11 7/27/13 27/48/14 26/47/12
f 7/27/13 8/28/15 28/49/16 27/48/14
f 8/28/15 9/29/17 29/50/18 28/49/16
f 9/29/17 10/30/19 30/51/20 29/50/18
f 10/30/19 11/31/21 31/52/22 30/51/20
f 11/31/21 12/32/23 32/53/24 31/52/22
f 12/32/23 13/33/25 33/54/26 32/53/24
f 13/33/25 14/34/27 34/55/28 33/54/26
f 14/34/27 15/35/29 35/56/30 34/55/28
f 15/35/29 16/36/31 36/57/32 35/56/30
f 16/36/31 17/37/33 37/58/34 36/57/32
f 17/37/33 18/38/35 38/59/36 37/58/34
f 18/38/35 19/39/37 39/60/38 38/59/36
f 19/39/37 20/40/39 40/61/40 39/60/38
f 20/40/39 1/41/1 21/62/4 40/61/40
s 2
f 2/2/41 1/1/42 41/83/43
f 3/3/44 2/2/41 41/83/43
f 4/4/45 3/3/44 41/83/43
f 5/5/46 4/4/45 41/83/43
f 6/6/47 5/5/46 41/83/43
f 7/7/48 6/6/47 41/83/43
f 8/8/49 7/7/48 41/83/43
f 9/9/50 8/8/49 41/83/43
f 10/10/51 9/9/50 41/83/43
f 11/11/52 10/10/51 41/83/43
f 12/12/53 11/11/52 41/83/43
f 13/13/54 12/12/53 41/83/43
f 14/14/55 13/13/54 41/83/43
f 15/15/56 14/14/55 41/83/43
f 16/16/57 15/15/56 41/83/43
f 17/17/58 16/16/57 41/83/43
f 18/18/59 17/17/58 41/83/43
f 19/19/60 18/18/59 41/83/43
f 20/20/61 19/19/60 41/83/43
f 1/1/42 20/20/61 41/83/43
s 3
f 82/125/62 83/126/63 84/84/64
f 83/126/63 85/127/65 84/84/64
f 85/127/65 86/128/66 84/84/64
f 86/128/66 87/129/67 84/84/64
f 87/129/67 88/130/68 84/84/64
f 88/130/68 89/131/69 84/84/64
f 89/131/69 90/132/70 84/84/64
f 90/132/70 91/133/71 84/84/64
f 91/133/71 92/134/72 84/84/64
f 92/134/72 93/135/73 84/84/64
f 93/135/73 94/136/74 84/84/64
f 94/136/74 95/137/75 84/84/64
f 95/137/75 96/138/76 84/84/64
f 96/138/76 97/139/77 84/84/64
f 97/139/77 98/140/78 84/84/64
f 98/140/78 99/141/79 84/84/64
f 99/141/79 100/142/80 84/84/64
f 100/142/80 101/143/81 84/84/64
f 101/143/81 102/144/82 84/84/64
f 102/144/82 82/125/62 84/84/64
s 4
f 103/145/83 104/146/84 105/147/85 106/148/86
f 104/146/84 107/149/87 108/150/88 105/147/85
f 107/149/87 109/151/89 110/152/90 108/150/88
f 109/151/89 111/153/91 112/154/92 110/152/90
f 111/153/91 113/155/93 114/156/94 112/154/92
f 113/155/93 115/157/95 116/158/96 114/156/94
f 115/157/95 117/159/97 118/160/98 116/158/96
f 117/159/97 119/161/99 120/162/100 118/160/98
f 119/161/99 121/163/101 122/164/102 120/162/100
f 121/163/101 123/165/103 124/166/104 122/164/102
f 123/165/103 125/167/105 126/168/106 124/166/104
f 125/167/105 127/169/107 128/170/108 126/168/106
f 127/169/107 129/171/109 130/172/110 128/170/108
f 129/171/109 131/173/111 132/174/112 130/172/110
f 131/173/111 133/175/113 134/176/114 132/174/112
f 133/175/113 135/177/115 136/178/116 134/176/114
f 135/177/115 137/179/117 138/180/118 136/178/116
f 137/179/117 139/181/119 140/182/120 138/180/118
f 139/181/119 141/183/121 142/184/122 140/182/120
f 141/183/121 103/145/83 106/148/86 142/184/122
s 5
f 42/85/123 43/86/124 63/106/125 62/105/126
f 43/86/124 44/87/127 64/107/128 63/106/125
f 44/87/127 45/88/129 65/108/130 64/107/128
f 45/88/129 46/89/131 66/109/132 65/108/130
f 46/89/131 47/90/133 67/110/134 66/109/132
f 47/90/133 48/91/135 68/111/136 67/110/134
f 48/91/135 49/92/137 69/112/138 68/111/136
f 49/92/137 50/93/139 70/113/140 69/112/138
f 50/93/139 51/94/141 71/114/142 70/113/140
f 51/94/141 52/95/143 72/115/144 71/114/142
f 52/95/143 53/96/145 73/116/146 72/115/144
f 53/96/145 54/97/147 74/117/148 73/116/146
f 54/97/147 55/98/149 75/118/150 74/117/148
f 55/98/149 56/99/151 76/119/152 75/118/150
f 56/99/151 57/100/153 77/120/154 76/119/152
f 57/100/153 58/101/155 78/121/156 77/120/154
f 58/101/155 59/102/157 79/122/158 78/121/156
f 59/102/157 60/103/159 80/123/160 79/122/158
f 60/103/159 61/104/161 81/124/162 80/123/160
f 61/104/161 42/85/123 62/105/126 81/124/162
s 6
f 62/105/163 63/106/164 83/126/165 82/125/166
f 63/106/164 64/107/167 85/127/168 83/126/165
f 64/107/167 65/108/169 86/128/170 85/127/168
f 65/108/169 66/109/171 87/129/172 86/128/170
f 66/109/171 67/110/173 88/130/174 87/129/172
f 67/110/173 68/111/175 89/131/176 88/130/174
f 68/111/175 69/112/177 90/132/178 89/131/176
f 69/112/177 70/113/179 91/133/180 90/132/178
f 70/113/179 71/114/181 92/134/182 91/133/180
f 71/114/181 72/115/183 93/135/184 92/134/182
f 72/115/183 73/116/185 94/136/186 93/135/184
f 73/116/185 74/117/187 95/137/188 94/136/186
f 74/117/187 75/118/189 96/138/190 95/137/188
f 75/118/189 76/119/191 97/139/192 96/138/190
f 76/119/191 77/120/193 98/140/194 97/139/192
f 77/120/193 78/121/195 99/141/196 98/140/194
f 78/121/195 79/122/197 100/142/198 99/141/196
f 79/122/197 80/123/199 101/143/200 100/142/198
f 80/123/199 81/124/201 102/144/202 101/143/200
f 81/124/201 62/105/163 82/125/166 102/144/202
s 7
f 21/81/203 22/80/204 104/146/205 103/145/206
s 8
f 43/86/207 42/85/208 106/148/209 105/147/210
s 7
f 22/80/204 23/79/211 107/149/212 104/146/205
s 8
f 44/87/213 43/86/207 105/147/210 108/150/214
s 7
f 23/79/211 24/78/215 109/151/216 107/149/212
s 8
f 45/88/217 44/87/213 108/150/214 110/152/218
s 7
f 24/78/215 25/77/219 111/153/220 109/151/216
s 8
f 46/89/221 45/88/217 110/152/218 112/154/222
s 7
f 25/77/219 26/76/223 113/155/224 111/153/220
s 8
f 47/90/225 46/89/221 112/154/222 114/156/226
s 7
f 26/76/223 27/75/227 115/157/228 113/155/224
s 8
f 48/91/229 47/90/225 114/156/226 116/158/230
s 7
f 27/75/227 28/74/231 117/159/232 115/157/228
s 8
f 49/92/233 48/91/229 116/158/230 118/160/234
s 7
f 28/74/231 29/73/235 119/161/236 117/159/232
s 8
f 50/93/237 49/92/233 118/160/234 120/162/238
s 7
f 29/73/235 30/72/239 121/163/240 119/161/236
s 8
f 51/94/241 50/93/237 120/162/238 122/164/242
s 7
f 30/72/239 31/71/243 123/165/244 121/163/240
s 8
f 52/95/245 51/94/241 122/164/242 124/166/246
s 7
f 31/71/243 32/70/247 125/167/248 123/165/244
s 8
f 53/96/249 52/95/245 124/166/246 126/168/250
s 7
f 32/70/247 33/69/251 127/169/252 125/167/248
s 8
f 54/97/253 53/96/249 126/168/250 128/170/254
s 7
f 33/69/251 34/68/255 129/171/256 127/169/252
s 8
f 55/98/257 54/97/253 128/170/254 130/172/258
s 7
f 34/68/255 35/67/259 131/173/260 129/171/256
s 8
f 56/99/261 55/98/257 130/172/258 132/174/262
s 7
f 35/67/259 36/66/263 133/175/264 131/173/260
s 8
f 57/100/265 56/99/261 132/174/262 134/176/266
s 7
f 36/66/263 37/65/267 135/177/268 133/175/264
s 8
f 58/101/269 57/100/265 134/176/266 136/178/270
s 7
f 37/65/267 38/64/271 137/179/272 135/177/268
s 8
f 59/102/273 58/101/269 136/178/270 138/180/274
s 7
f 38/64/271 39/63/275 139/181/276 137/179/272
s 8
f 60/103/277 59/102/273 138/180/274 140/182/278
s 7
f 39/63/275 40/82/279 141/183/280 139/181/276
s 8
f 61/104/281 60/103/277 140/182/278 142/184/282
s 7
f 40/82/279 21/81/203 103/145/206 141/183/280
s 8
f 42/85/208 61/104/281 142/184/282 106/148/209
