# This file uses meters as units for non-parametric coordinates.

mtllib small_dead_tree_fantasy.mtl
g default
v 15.740825 1634.281006 -4.621677
v 13.745952 1635.044922 -8.813938
v 10.639263 1636.235107 -12.140842
v 6.724224 1637.734619 -14.276951
v 2.384624 1639.396729 -15.013035
v -1.955220 1641.058838 -14.276951
v -5.870015 1642.558350 -12.140842
v -8.976948 1643.748535 -8.813938
v -10.971821 1644.512451 -4.621677
v -11.659077 1644.775635 0.025540
v -10.971821 1644.512451 4.672756
v -8.976948 1643.748535 8.865017
v -5.870015 1642.558350 12.191921
v -1.955220 1641.058838 14.328030
v 2.384624 1639.396729 15.064114
v 6.724224 1637.734619 14.328030
v 10.639263 1636.235107 12.191921
v 13.745952 1635.045166 8.865017
v 15.740825 1634.281006 4.672634
v 16.428081 1634.017822 0.025540
v 281.089458 2248.798340 -3.333225
v 279.647808 2249.350586 -6.363132
v 277.402446 2250.210693 -8.767673
v 274.572856 2251.294434 -10.311619
v 271.436382 2252.495850 -10.843479
v 268.299907 2253.697266 -10.311619
v 265.470317 2254.781006 -8.767673
v 263.224956 2255.641113 -6.363132
v 261.783061 2256.193115 -3.333225
v 261.286479 2256.383545 0.025540
v 261.783061 2256.193115 3.384304
v 263.224956 2255.641113 6.414212
v 265.470317 2254.781006 8.818753
v 268.299907 2253.697266 10.362576
v 271.436382 2252.495850 10.894558
v 274.572856 2251.294434 10.362576
v 277.402446 2250.210693 8.818753
v 279.647808 2249.350586 6.414212
v 281.089458 2248.798340 3.384304
v 281.586284 2248.608154 0.025540
v 2.384624 1639.396729 0.025540
v 271.436382 2252.495850 0.025540
v 13.653179 1904.177734 10.652859
v 13.925395 1905.761719 8.250759
v 13.296245 1907.276855 5.871365
v 11.827251 1908.575195 3.747830
v 9.662212 1909.529785 2.088040
v 7.013286 1910.046631 1.054226
v 4.139507 1910.075684 0.747830
v 1.322368 1909.613770 1.198757
v -1.162495 1908.706299 2.362820
v -3.071675 1907.442139 4.126004
v -4.218648 1905.944824 6.315945
v -4.490864 1904.360840 8.718167
v -3.861470 1902.845703 11.097439
v -2.392476 1901.547363 13.220974
v -0.227681 1900.593018 14.880886
v 2.421245 1900.075928 15.914578
v 5.295024 1900.046875 16.221096
v 8.112163 1900.508789 15.770169
v 10.597026 1901.416260 14.606106
v 12.506450 1902.680420 12.842800
v 1.888530 2208.396484 179.229641
v 1.995220 2209.017334 178.287747
v 1.748638 2209.611572 177.354885
v 1.172710 2210.120605 176.522244
v 0.323833 2210.494873 175.871365
v -0.714985 2210.697510 175.466091
v -1.841694 2210.708984 175.345974
v -2.946187 2210.527832 175.522732
v -3.920552 2210.172119 175.979153
v -4.669087 2209.676270 176.670437
v -5.118794 2209.089111 177.529080
v -5.225483 2208.468262 178.470974
v -4.978901 2207.874023 179.403958
v -4.402974 2207.364990 180.236599
v -3.554097 2206.990723 180.887356
v -2.515278 2206.788086 181.292752
v -1.388569 2206.776611 181.412869
v -0.284077 2206.957764 181.236111
v 0.690288 2207.313477 180.779690
v 1.438823 2207.809326 180.088284
v 4.717388 1905.061279 8.484402
v -1.615132 2208.742676 178.379421
v 99.868999 0.000000 -32.423801
v 84.953716 0.000000 -61.696872
v 61.722515 0.000000 -84.928074
v 32.449321 0.000000 -99.843235
v 0.000102 0.000000 -104.982883
v -32.449116 0.000000 -99.843235
v -61.722310 0.000000 -84.928074
v -84.953511 0.000000 -61.696872
v -99.868794 0.000000 -32.423801
v -105.008198 0.000000 0.025540
v -99.868794 0.000000 32.474880
v -84.953511 0.000000 61.747952
v -61.722310 0.000000 84.979153
v -32.449116 0.000000 99.894314
v 0.000102 0.000000 105.033840
v 32.449321 0.000000 99.894314
v 61.722515 0.000000 84.979153
v 84.953716 0.000000 61.747952
v 99.868999 0.000000 32.474880
v 105.008403 0.000000 0.025540
v 12.458354 2468.414551 -4.022434
v 10.597759 2468.414551 -7.674167
v 7.699809 2468.414551 -10.572117
v 4.047954 2468.414551 -12.432834
v 0.000102 2468.414551 -13.073948
v -4.047749 2468.414551 -12.432834
v -7.699605 2468.414551 -10.572117
v -10.597554 2468.414551 -7.674167
v -12.458149 2468.414551 -4.022434
v -13.099263 2468.414551 0.025540
v -12.458149 2468.414551 4.073513
v -10.597554 2468.414551 7.725247
v -7.699605 2468.414551 10.623196
v -4.047749 2468.414551 12.483792
v 0.000102 2468.414551 13.125027
v 4.047954 2468.414551 12.483792
v 7.699809 2468.414551 10.623196
v 10.597759 2468.414551 7.725247
v 12.458354 2468.414551 4.073513
v 13.099468 2468.414551 0.025540
v 0.000102 0.000000 0.025540
v 0.000102 2468.414551 0.025540
vt 0.648603 0.107966
vt 0.626409 0.064408
vt 0.591842 0.029841
vt 0.548284 0.007647
vt 0.500000 -0.000000
vt 0.451716 0.007647
vt 0.408159 0.029841
vt 0.373591 0.064409
vt 0.351397 0.107966
vt 0.343750 0.156250
vt 0.351397 0.204534
vt 0.373591 0.248091
vt 0.408159 0.282659
vt 0.451716 0.304853
vt 0.500000 0.312500
vt 0.548284 0.304853
vt 0.591841 0.282659
vt 0.626409 0.248091
vt 0.648603 0.204534
vt 0.656250 0.156250
vt 0.375000 0.312500
vt 0.387500 0.312500
vt 0.400000 0.312500
vt 0.412500 0.312500
vt 0.425000 0.312500
vt 0.437500 0.312500
vt 0.450000 0.312500
vt 0.462500 0.312500
vt 0.475000 0.312500
vt 0.487500 0.312500
vt 0.500000 0.312500
vt 0.512500 0.312500
vt 0.525000 0.312500
vt 0.537500 0.312500
vt 0.550000 0.312500
vt 0.562500 0.312500
vt 0.575000 0.312500
vt 0.587500 0.312500
vt 0.600000 0.312500
vt 0.612500 0.312500
vt 0.625000 0.312500
vt 0.375000 0.688440
vt 0.387500 0.688440
vt 0.400000 0.688440
vt 0.412500 0.688440
vt 0.425000 0.688440
vt 0.437500 0.688440
vt 0.450000 0.688440
vt 0.462500 0.688440
vt 0.475000 0.688440
vt 0.487500 0.688440
vt 0.500000 0.688440
vt 0.512500 0.688440
vt 0.525000 0.688440
vt 0.537500 0.688440
vt 0.550000 0.688440
vt 0.562500 0.688440
vt 0.575000 0.688440
vt 0.587500 0.688440
vt 0.600000 0.688440
vt 0.612500 0.688440
vt 0.625000 0.688440
vt 0.648603 0.795466
vt 0.626409 0.751908
vt 0.591842 0.717341
vt 0.548284 0.695147
vt 0.500000 0.687500
vt 0.451716 0.695147
vt 0.408159 0.717341
vt 0.373591 0.751909
vt 0.351397 0.795466
vt 0.343750 0.843750
vt 0.351397 0.892034
vt 0.373591 0.935591
vt 0.408159 0.970159
vt 0.451716 0.992353
vt 0.500000 1.000000
vt 0.548284 0.992353
vt 0.591841 0.970159
vt 0.626409 0.935591
vt 0.648603 0.892034
vt 0.656250 0.843750
vt 0.500000 0.150000
vt 0.500000 0.837500
vt 0.375000 0.312500
vt 0.387500 0.312500
vt 0.387500 0.688440
vt 0.375000 0.688440
vt 0.400000 0.312500
vt 0.400000 0.688440
vt 0.412500 0.312500
vt 0.412500 0.688440
vt 0.425000 0.312500
vt 0.425000 0.688440
vt 0.437500 0.312500
vt 0.437500 0.688440
vt 0.450000 0.312500
vt 0.450000 0.688440
vt 0.462500 0.312500
vt 0.462500 0.688440
vt 0.475000 0.312500
vt 0.475000 0.688440
vt 0.487500 0.312500
vt 0.487500 0.688440
vt 0.500000 0.312500
vt 0.500000 0.688440
vt 0.512500 0.312500
vt 0.512500 0.688440
vt 0.525000 0.312500
vt 0.525000 0.688440
vt 0.537500 0.312500
vt 0.537500 0.688440
vt 0.550000 0.312500
vt 0.550000 0.688440
vt 0.562500 0.312500
vt 0.562500 0.688440
vt 0.575000 0.312500
vt 0.575000 0.688440
vt 0.587500 0.312500
vt 0.587500 0.688440
vt 0.600000 0.312500
vt 0.600000 0.688440
vt 0.612500 0.312500
vt 0.612500 0.688440
vt 0.625000 0.312500
vt 0.625000 0.688440
vt 0.626409 0.064408
vt 0.648603 0.107966
vt 0.500000 0.150000
vt 0.591842 0.029841
vt 0.548284 0.007647
vt 0.500000 -0.000000
vt 0.451716 0.007647
vt 0.408159 0.029841
vt 0.373591 0.064409
vt 0.351397 0.107966
vt 0.343750 0.156250
vt 0.351397 0.204534
vt 0.373591 0.248091
vt 0.408159 0.282659
vt 0.451716 0.304853
vt 0.500000 0.312500
vt 0.548284 0.304853
vt 0.591841 0.282659
vt 0.626409 0.248091
vt 0.648603 0.204534
vt 0.656250 0.156250
vt 0.648603 0.892034
vt 0.626409 0.935591
vt 0.500000 0.837500
vt 0.591841 0.970159
vt 0.548284 0.992353
vt 0.500000 1.000000
vt 0.451716 0.992353
vt 0.408159 0.970159
vt 0.373591 0.935591
vt 0.351397 0.892034
vt 0.343750 0.843750
vt 0.351397 0.795466
vt 0.373591 0.751909
vt 0.408159 0.717341
vt 0.451716 0.695147
vt 0.500000 0.687500
vt 0.548284 0.695147
vt 0.591842 0.717341
vt 0.626409 0.751908
vt 0.648603 0.795466
vt 0.656250 0.843750
vt 0.375000 0.312500
vt 0.387500 0.312500
vt 0.387500 0.688440
vt 0.375000 0.688440
vt 0.400000 0.312500
vt 0.400000 0.688440
vt 0.412500 0.312500
vt 0.412500 0.688440
vt 0.425000 0.312500
vt 0.425000 0.688440
vt 0.437500 0.312500
vt 0.437500 0.688440
vt 0.450000 0.312500
vt 0.450000 0.688440
vt 0.462500 0.312500
vt 0.462500 0.688440
vt 0.475000 0.312500
vt 0.475000 0.688440
vt 0.487500 0.312500
vt 0.487500 0.688440
vt 0.500000 0.312500
vt 0.500000 0.688440
vt 0.512500 0.312500
vt 0.512500 0.688440
vt 0.525000 0.312500
vt 0.525000 0.688440
vt 0.537500 0.312500
vt 0.537500 0.688440
vt 0.550000 0.312500
vt 0.550000 0.688440
vt 0.562500 0.312500
vt 0.562500 0.688440
vt 0.575000 0.312500
vt 0.575000 0.688440
vt 0.587500 0.312500
vt 0.587500 0.688440
vt 0.600000 0.312500
vt 0.600000 0.688440
vt 0.612500 0.312500
vt 0.612500 0.688440
vt 0.625000 0.312500
vt 0.625000 0.688440
vt 0.626409 0.064408
vt 0.648603 0.107966
vt 0.500000 0.150000
vt 0.591842 0.029841
vt 0.548284 0.007647
vt 0.500000 -0.000000
vt 0.451716 0.007647
vt 0.408159 0.029841
vt 0.373591 0.064409
vt 0.351397 0.107966
vt 0.343750 0.156250
vt 0.351397 0.204534
vt 0.373591 0.248091
vt 0.408159 0.282659
vt 0.451716 0.304853
vt 0.500000 0.312500
vt 0.548284 0.304853
vt 0.591841 0.282659
vt 0.626409 0.248091
vt 0.648603 0.204534
vt 0.656250 0.156250
vt 0.648603 0.892034
vt 0.626409 0.935591
vt 0.500000 0.837500
vt 0.591841 0.970159
vt 0.548284 0.992353
vt 0.500000 1.000000
vt 0.451716 0.992353
vt 0.408159 0.970159
vt 0.373591 0.935591
vt 0.351397 0.892034
vt 0.343750 0.843750
vt 0.351397 0.795466
vt 0.373591 0.751909
vt 0.408159 0.717341
vt 0.451716 0.695147
vt 0.500000 0.687500
vt 0.548284 0.695147
vt 0.591842 0.717341
vt 0.626409 0.751908
vt 0.648603 0.795466
vt 0.656250 0.843750
vn 0.873027 -0.376322 -0.310171
vn 0.742012 -0.318826 -0.589719
vn 0.745017 -0.320145 -0.585198
vn 0.873858 -0.376687 -0.307375
vn 0.538108 -0.229346 -0.811074
vn 0.543809 -0.231848 -0.806547
vn 0.281549 -0.116765 -0.952416
vn 0.289435 -0.120225 -0.949618
vn -0.002120 0.007736 -0.999968
vn 0.006596 0.003910 -0.999971
vn -0.284930 0.131847 -0.949437
vn -0.277047 0.128388 -0.952240
vn -0.539158 0.243402 -0.806265
vn -0.533464 0.240904 -0.810791
vn -0.740182 0.331623 -0.584942
vn -0.737178 0.330305 -0.589463
vn -0.868908 0.388102 -0.307207
vn -0.868078 0.387738 -0.310001
vn -0.913193 0.407527 0.000001
vn -0.913193 0.407527 0.000001
vn -0.868908 0.388102 0.307206
vn -0.868078 0.387738 0.309999
vn -0.740192 0.331617 0.584932
vn -0.737189 0.330299 0.589454
vn -0.539145 0.243404 0.806274
vn -0.533450 0.240905 0.810799
vn -0.284934 0.131849 0.949436
vn -0.277054 0.128391 0.952238
vn -0.002146 0.007737 0.999968
vn 0.006572 0.003911 0.999971
vn 0.281549 -0.116765 0.952416
vn 0.289435 -0.120225 0.949618
vn 0.538093 -0.229347 0.811083
vn 0.543795 -0.231849 0.806556
vn 0.742010 -0.318828 0.589720
vn 0.745015 -0.320146 0.585200
vn 0.873033 -0.376315 0.310164
vn 0.873863 -0.376679 0.307370
vn 0.918193 -0.396133 0.000002
vn 0.918193 -0.396133 0.000002
vn -0.357712 -0.933832 -0.000014
vn -0.357689 -0.933841 0.000000
vn -0.357681 -0.933844 -0.000003
vn -0.357697 -0.933838 -0.000007
vn -0.357663 -0.933851 0.000007
vn -0.357669 -0.933848 0.000000
vn -0.357666 -0.933850 0.000014
vn -0.357700 -0.933837 0.000014
vn -0.357692 -0.933840 -0.000028
vn -0.357673 -0.933847 -0.000028
vn -0.357669 -0.933849 0.000000
vn -0.357678 -0.933845 0.000028
vn -0.357709 -0.933833 0.000014
vn -0.357697 -0.933838 -0.000021
vn -0.357663 -0.933851 -0.000007
vn -0.357650 -0.933855 0.000000
vn -0.357641 -0.933859 -0.000014
vn -0.357681 -0.933844 -0.000014
vn -0.357701 -0.933836 0.000000
vn -0.357678 -0.933845 0.000000
vn -0.357697 -0.933838 0.000000
vn 0.357693 0.933839 0.000000
vn 0.357678 0.933845 0.000053
vn 0.357689 0.933841 0.000001
vn 0.357705 0.933835 -0.000027
vn 0.357705 0.933835 -0.000027
vn 0.357681 0.933844 0.000000
vn 0.357705 0.933835 0.000013
vn 0.357723 0.933828 0.000040
vn 0.357664 0.933850 0.000027
vn 0.357652 0.933855 0.000000
vn 0.357682 0.933844 0.000000
vn 0.357652 0.933855 0.000000
vn 0.357676 0.933846 0.000000
vn 0.357699 0.933837 -0.000027
vn 0.357676 0.933846 -0.000027
vn 0.357705 0.933835 0.000000
vn 0.357729 0.933825 0.000027
vn 0.357693 0.933839 0.000027
vn 0.357675 0.933846 -0.000053
vn 0.357684 0.933843 0.000000
vn 0.357700 0.933837 -0.000000
vn 0.965323 -0.097001 0.242370
vn 0.997964 0.056158 -0.030222
vn 0.997169 0.062567 -0.041707
vn 0.969032 -0.089982 0.229956
vn 0.931799 0.205325 -0.299321
vn 0.928019 0.209952 -0.307734
vn 0.773239 0.335585 -0.538037
vn 0.769134 0.337953 -0.542421
vn 0.538094 0.433966 -0.722584
vn 0.536431 0.434458 -0.723525
vn 0.249703 0.490701 -0.834782
vn 0.252310 0.490412 -0.834167
vn -0.063505 0.500226 -0.863563
vn -0.056409 0.500546 -0.863870
vn -0.370553 0.461631 -0.805970
vn -0.360468 0.463722 -0.809336
vn -0.640815 0.378677 -0.667802
vn -0.630380 0.383041 -0.675204
vn -0.847455 0.259773 -0.462967
vn -0.839473 0.266016 -0.473837
vn -0.970200 0.116972 -0.212203
vn -0.966526 0.123994 -0.224617
vn -0.997606 -0.035526 0.059338
vn -0.998428 -0.029132 0.047882
vn -0.927971 -0.182637 0.324829
vn -0.931752 -0.178029 0.316454
vn -0.769057 -0.310264 0.558827
vn -0.773148 -0.307910 0.554467
vn -0.536792 -0.406400 0.739387
vn -0.538447 -0.405912 0.738452
vn -0.253386 -0.462220 0.849793
vn -0.250791 -0.462509 0.850406
vn 0.054653 -0.472545 0.879610
vn 0.061720 -0.472233 0.879310
vn 0.358212 -0.436028 0.825569
vn 0.368272 -0.433950 0.822231
vn 0.628073 -0.355678 0.692111
vn 0.638501 -0.351337 0.684747
vn 0.837593 -0.238905 0.491287
vn 0.845602 -0.232669 0.480440
vn 0.049777 -0.836390 -0.545871
vn 0.049749 -0.836396 -0.545863
vn 0.049760 -0.836420 -0.545826
vn 0.049803 -0.836442 -0.545789
vn 0.049756 -0.836382 -0.545885
vn 0.049734 -0.836405 -0.545852
vn 0.049776 -0.836408 -0.545842
vn 0.049754 -0.836431 -0.545809
vn 0.049733 -0.836461 -0.545766
vn 0.049757 -0.836443 -0.545790
vn 0.049760 -0.836432 -0.545807
vn 0.049751 -0.836364 -0.545913
vn 0.049765 -0.836386 -0.545878
vn 0.049773 -0.836437 -0.545799
vn 0.049771 -0.836448 -0.545782
vn 0.049739 -0.836416 -0.545833
vn 0.049738 -0.836404 -0.545853
vn 0.049769 -0.836438 -0.545797
vn 0.049772 -0.836428 -0.545812
vn 0.049774 -0.836426 -0.545816
vn 0.049755 -0.836460 -0.545765
vn -0.049790 0.836390 0.545869
vn -0.049756 0.836340 0.545948
vn -0.049763 0.836411 0.545839
vn -0.049736 0.836377 0.545893
vn -0.049803 0.836480 0.545730
vn -0.049852 0.836404 0.545842
vn -0.049733 0.836436 0.545803
vn -0.049746 0.836402 0.545855
vn -0.049747 0.836429 0.545813
vn -0.049740 0.836428 0.545816
vn -0.049802 0.836334 0.545954
vn -0.049733 0.836374 0.545899
vn -0.049694 0.836359 0.545926
vn -0.049734 0.836393 0.545869
vn -0.049716 0.836466 0.545759
vn -0.049730 0.836500 0.545706
vn -0.049792 0.836406 0.545844
vn -0.049817 0.836344 0.545937
vn -0.049807 0.836416 0.545827
vn -0.049752 0.836501 0.545702
vn -0.049778 0.836445 0.545785
vn 0.950399 0.037208 -0.308800
vn 0.808459 0.037208 -0.587376
vn 0.808459 0.037208 -0.587376
vn 0.950399 0.037208 -0.308800
vn 0.587374 0.037208 -0.808460
vn 0.587374 0.037208 -0.808460
vn 0.308803 0.037208 -0.950398
vn 0.308803 0.037208 -0.950398
vn -0.000000 0.037208 -0.999308
vn 0.000000 0.037208 -0.999308
vn -0.308803 0.037208 -0.950398
vn -0.308803 0.037208 -0.950398
vn -0.587374 0.037209 -0.808460
vn -0.587374 0.037209 -0.808460
vn -0.808459 0.037208 -0.587376
vn -0.808459 0.037208 -0.587376
vn -0.950399 0.037208 -0.308800
vn -0.950399 0.037208 -0.308800
vn -0.999308 0.037208 0.000000
vn -0.999308 0.037208 -0.000000
vn -0.950399 0.037208 0.308800
vn -0.950399 0.037208 0.308800
vn -0.808457 0.037209 0.587378
vn -0.808457 0.037209 0.587378
vn -0.587370 0.037208 0.808463
vn -0.587370 0.037208 0.808463
vn -0.308803 0.037208 0.950398
vn -0.308803 0.037208 0.950398
vn 0.000000 0.037209 0.999308
vn 0.000000 0.037209 0.999308
vn 0.308803 0.037208 0.950398
vn 0.308803 0.037208 0.950398
vn 0.587370 0.037208 0.808463
vn 0.587370 0.037208 0.808463
vn 0.808457 0.037208 0.587378
vn 0.808457 0.037208 0.587378
vn 0.950399 0.037208 0.308800
vn 0.950399 0.037208 0.308800
vn 0.999308 0.037208 0.000000
vn 0.999308 0.037208 -0.000000
vn 0.000000 -1.000000 0.000000
vn 0.000000 -1.000000 0.000000
vn 0.000000 -1.000000 0.000000
vn 0.000000 -1.000000 0.000000
vn 0.000000 -1.000000 0.000000
vn 0.000000 -1.000000 0.000000
vn 0.000000 -1.000000 0.000000
vn 0.000000 -1.000000 0.000000
vn 0.000000 -1.000000 0.000000
vn 0.000000 -1.000000 0.000000
vn 0.000000 -1.000000 0.000000
vn 0.000000 -1.000000 0.000000
vn 0.000000 -1.000000 0.000000
vn 0.000000 -1.000000 0.000000
vn 0.000000 -1.000000 0.000000
vn 0.000000 -1.000000 0.000000
vn 0.000000 -1.000000 0.000000
vn 0.000000 -1.000000 0.000000
vn 0.000000 -1.000000 0.000000
vn 0.000000 -1.000000 0.000000
vn 0.000000 -1.000000 0.000000
vn 0.000000 1.000000 -0.000037
vn 0.000000 1.000000 -0.000037
vn 0.000000 1.000000 0.000000
vn 0.000000 1.000000 0.000000
vn 0.000000 1.000000 0.000000
vn 0.000000 1.000000 0.000000
vn 0.000000 1.000000 0.000000
vn 0.000000 1.000000 0.000000
vn 0.000000 1.000000 -0.000037
vn 0.000000 1.000000 -0.000037
vn 0.000000 1.000000 0.000000
vn 0.000000 1.000000 0.000037
vn 0.000000 1.000000 0.000037
vn 0.000000 1.000000 0.000000
vn 0.000000 1.000000 0.000000
vn 0.000000 1.000000 0.000000
vn 0.000000 1.000000 0.000000
vn 0.000000 1.000000 0.000000
vn 0.000000 1.000000 0.000037
vn 0.000000 1.000000 0.000037
vn 0.000000 1.000000 0.000000
s 1
g pCylinder139 group1
usemtl initialShadingGroup
f 1/21/1 2/22/2 22/43/3 21/42/4
f 2/22/2 3/23/5 23/44/6 22/43/3
f 3/23/5 4/24/7 24/45/8 23/44/6
f 4/24/7 5/25/9 25/46/10 24/45/8
f 5/25/9 6/26/11 26/47/12 25/46/10
f 6/26/11 7/27/13 27/48/14 26/47/12
f 7/27/13 8/28/15 28/49/16 27/48/14
f 8/28/15 9/29/17 29/50/18 28/49/16
f 9/29/17 10/30/19 30/51/20 29/50/18
f 10/30/19 11/31/21 31/52/22 30/51/20
f 11/31/21 12/32/23 32/53/24 31/52/22
f 12/32/23 13/33/25 33/54/26 32/53/24
f 13/33/25 14/34/27 34/55/28 33/54/26
f 14/34/27 15/35/29 35/56/30 34/55/28
f 15/35/29 16/36/31 36/57/32 35/56/30
f 16/36/31 17/37/33 37/58/34 36/57/32
f 17/37/33 18/38/35 38/59/36 37/58/34
f 18/38/35 19/39/37 39/60/38 38/59/36
f 19/39/37 20/40/39 40/61/40 39/60/38
f 20/40/39 1/41/1 21/62/4 40/61/40
s 2
f 2/2/41 1/1/42 41/83/43
f 3/3/44 2/2/41 41/83/43
f 4/4/45 3/3/44 41/83/43
f 5/5/46 4/4/45 41/83/43
f 6/6/47 5/5/46 41/83/43
f 7/7/48 6/6/47 41/83/43
f 8/8/49 7/7/48 41/83/43
f 9/9/50 8/8/49 41/83/43
f 10/10/51 9/9/50 41/83/43
f 11/11/52 10/10/51 41/83/43
f 12/12/53 11/11/52 41/83/43
f 13/13/54 12/12/53 41/83/43
f 14/14/55 13/13/54 41/83/43
f 15/15/56 14/14/55 41/83/43
f 16/16/57 15/15/56 41/83/43
f 17/17/58 16/16/57 41/83/43
f 18/18/59 17/17/58 41/83/43
f 19/19/60 18/18/59 41/83/43
f 20/20/61 19/19/60 41/83/43
f 1/1/42 20/20/61 41/83/43
s 3
f 21/81/62 22/80/63 42/84/64
f 22/80/63 23/79/65 42/84/64
f 23/79/65 24/78/66 42/84/64
f 24/78/66 25/77/67 42/84/64
f 25/77/67 26/76/68 42/84/64
f 26/76/68 27/75/69 42/84/64
f 27/75/69 28/74/70 42/84/64
f 28/74/70 29/73/71 42/84/64
f 29/73/71 30/72/72 42/84/64
f 30/72/72 31/71/73 42/84/64
f 31/71/73 32/70/74 42/84/64
f 32/70/74 33/69/75 42/84/64
f 33/69/75 34/68/76 42/84/64
f 34/68/76 35/67/77 42/84/64
f 35/67/77 36/66/78 42/84/64
f 36/66/78 37/65/79 42/84/64
f 37/65/79 38/64/80 42/84/64
f 38/64/80 39/63/81 42/84/64
f 39/63/81 40/82/82 42/84/64
f 40/82/82 21/81/62 42/84/64
s 4
f 43/85/83 44/86/84 64/87/85 63/88/86
f 44/86/84 45/89/87 65/90/88 64/87/85
f 45/89/87 46/91/89 66/92/90 65/90/88
f 46/91/89 47/93/91 67/94/92 66/92/90
f 47/93/91 48/95/93 68/96/94 67/94/92
f 48/95/93 49/97/95 69/98/96 68/96/94
f 49/97/95 50/99/97 70/100/98 69/98/96
f 50/99/97 51/101/99 71/102/100 70/100/98
f 51/101/99 52/103/101 72/104/102 71/102/100
f 52/103/101 53/105/103 73/106/104 72/104/102
f 53/105/103 54/107/105 74/108/106 73/106/104
f 54/107/105 55/109/107 75/110/108 74/108/106
f 55/109/107 56/111/109 76/112/110 75/110/108
f 56/111/109 57/113/111 77/114/112 76/112/110
f 57/113/111 58/115/113 78/116/114 77/114/112
f 58/115/113 59/117/115 79/118/116 78/116/114
f 59/117/115 60/119/117 80/120/118 79/118/116
f 60/119/117 61/121/119 81/122/120 80/120/118
f 61/121/119 62/123/121 82/124/122 81/122/120
f 62/123/121 43/125/83 63/126/86 82/124/122
s 5
f 44/127/123 43/128/124 83/129/125
f 45/130/126 44/127/123 83/129/125
f 46/131/127 45/130/126 83/129/125
f 47/132/128 46/131/127 83/129/125
f 48/133/129 47/132/128 83/129/125
f 49/134/130 48/133/129 83/129/125
f 50/135/131 49/134/130 83/129/125
f 51/136/132 50/135/131 83/129/125
f 52/137/133 51/136/132 83/129/125
f 53/138/134 52/137/133 83/129/125
f 54/139/135 53/138/134 83/129/125
f 55/140/136 54/139/135 83/129/125
f 56/141/137 55/140/136 83/129/125
f 57/142/138 56/141/137 83/129/125
f 58/143/139 57/142/138 83/129/125
f 59/144/140 58/143/139 83/129/125
f 60/145/141 59/144/140 83/129/125
f 61/146/142 60/145/141 83/129/125
f 62/147/143 61/146/142 83/129/125
f 43/128/124 62/147/143 83/129/125
s 6
f 63/148/144 64/149/145 84/150/146
f 64/149/145 65/151/147 84/150/146
f 65/151/147 66/152/148 84/150/146
f 66/152/148 67/153/149 84/150/146
f 67/153/149 68/154/150 84/150/146
f 68/154/150 69/155/151 84/150/146
f 69/155/151 70/156/152 84/150/146
f 70/156/152 71/157/153 84/150/146
f 71/157/153 72/158/154 84/150/146
f 72/158/154 73/159/155 84/150/146
f 73/159/155 74/160/156 84/150/146
f 74/160/156 75/161/157 84/150/146
f 75/161/157 76/162/158 84/150/146
f 76/162/158 77/163/159 84/150/146
f 77/163/159 78/164/160 84/150/146
f 78/164/160 79/165/161 84/150/146
f 79/165/161 80/166/162 84/150/146
f 80/166/162 81/167/163 84/150/146
f 81/167/163 82/168/164 84/150/146
f 82/168/164 63/148/144 84/150/146
s 7
f 85/169/165 86/170/166 106/171/167 105/172/168
f 86/170/166 87/173/169 107/174/170 106/171/167
f 87/173/169 88/175/171 108/176/172 107/174/170
f 88/175/171 89/177/173 109/178/174 108/176/172
f 89/177/173 90/179/175 110/180/176 109/178/174
f 90/179/175 91/181/177 111/182/178 110/180/176
f 91/181/177 92/183/179 112/184/180 111/182/178
f 92/183/179 93/185/181 113/186/182 112/184/180
f 93/185/181 94/187/183 114/188/184 113/186/182
f 94/187/183 95/189/185 115/190/186 114/188/184
f 95/189/185 96/191/187 116/192/188 115/190/186
f 96/191/187 97/193/189 117/194/190 116/192/188
f 97/193/189 98/195/191 118/196/192 117/194/190
f 98/195/191 99/197/193 119/198/194 118/196/192
f 99/197/193 100/199/195 120/200/196 119/198/194
f 100/199/195 101/201/197 121/202/198 120/200/196
f 101/201/197 102/203/199 122/204/200 121/202/198
f 102/203/199 103/205/201 123/206/202 122/204/200
f 103/205/201 104/207/203 124/208/204 123/206/202
f 104/207/203 85/209/165 105/210/168 124/208/204
s 8
f 86/211/205 85/212/206 125/213/207
f 87/214/208 86/211/205 125/213/207
f 88/215/209 87/214/208 125/213/207
f 89/216/210 88/215/209 125/213/207
f 90/217/211 89/216/210 125/213/207
f 91/218/212 90/217/211 125/213/207
f 92/219/213 91/218/212 125/213/207
f 93/220/214 92/219/213 125/213/207
f 94/221/215 93/220/214 125/213/207
f 95/222/216 94/221/215 125/213/207
f 96/223/217 95/222/216 125/213/207
f 97/224/218 96/223/217 125/213/207
f 98/225/219 97/224/218 125/213/207
f 99/226/220 98/225/219 125/213/207
f 100/227/221 99/226/220 125/213/207
f 101/228/222 100/227/221 125/213/207
f 102/229/223 101/228/222 125/213/207
f 103/230/224 102/229/223 125/213/207
f 104/231/225 103/230/224 125/213/207
f 85/212/206 104/231/225 125/213/207
s 9
f 105/232/226 106/233/227 126/234/228
f 106/233/227 107/235/229 126/234/228
f 107/235/229 108/236/230 126/234/228
f 108/236/230 109/237/231 126/234/228
f 109/237/231 110/238/232 126/234/228
f 110/238/232 111/239/233 126/234/228
f 111/239/233 112/240/234 126/234/228
f 112/240/234 113/241/235 126/234/228
f 113/241/235 114/242/236 126/234/228
f 114/242/236 115/243/237 126/234/228
f 115/243/237 116/244/238 126/234/228
f 116/244/238 117/245/239 126/234/228
f 117/245/239 118/246/240 126/234/228
f 118/246/240 119/247/241 126/234/228
f 119/247/241 120/248/242 126/234/228
f 120/248/242 121/249/243 126/234/228
f 121/249/243 122/250/244 126/234/228
f 122/250/244 123/251/245 126/234/228
f 123/251/245 124/252/246 126/234/228
f 124/252/246 105/232/226 126/234/228
