# This file uses meters as units for non-parametric coordinates.

mtllib Lush_forest_log.mtl
g default
v 95.105686 71.378368 629.245545
v 80.901767 43.501537 629.245545
v 58.778553 21.378368 629.245545
v 30.901737 7.174388 629.245545
v 0.000034 2.280101 629.245545
v -30.901730 7.174388 629.245545
v -58.778531 21.378368 629.245545
v -80.901738 43.501537 629.245545
v -95.105687 71.378368 629.245545
v -100.000035 102.280101 629.245545
v -95.105687 133.181835 629.245545
v -80.901730 161.058666 629.245545
v -58.778531 183.181835 629.245545
v -30.901715 197.385814 629.245545
v 0.000034 202.280101 629.245545
v 30.901706 197.385814 629.245545
v 58.778537 183.181835 629.245545
v 80.901676 161.058666 629.245545
v 95.105655 133.181835 629.245545
v 100.000064 102.280101 629.245545
v 238.868442 71.378368 -524.576446
v 229.444614 43.501537 -536.763702
v 214.671512 21.378368 -555.581451
v 195.955906 7.174388 -579.166778
v 175.783115 2.280101 -605.013824
v 155.317600 7.174388 -630.713043
v 137.251834 21.378368 -653.728058
v 122.950473 43.501537 -671.938629
v 113.850620 71.378368 -683.618438
v 110.384372 102.280101 -687.691681
v 113.850620 133.181835 -683.618438
v 122.950565 161.058666 -671.938507
v 137.251743 183.181835 -653.728058
v 155.317600 197.385814 -630.713043
v 175.783115 202.280101 -605.013824
v 195.955967 197.385814 -579.166900
v 214.671482 183.181835 -555.581573
v 229.444614 161.058666 -536.763702
v 238.868503 133.181835 -524.576568
v 242.718296 102.280101 -520.267486
v 0.000019 102.280101 629.245545
v 103.553959 102.280101 -637.643219
v -120.453671 161.058666 122.441132
v -134.657627 133.181835 122.441132
v -139.551976 102.280101 122.441132
v -134.657627 71.378368 122.441132
v -120.453679 43.501537 122.441132
v -98.330502 21.378368 122.441071
v -70.453686 7.174388 122.441071
v -39.551937 2.280101 122.441071
v -8.650235 7.174388 122.441071
v 19.226612 21.378368 122.441071
v 41.349826 43.501537 122.441071
v 55.553775 71.378368 122.441071
v 60.448032 102.280101 122.441071
v 55.553714 133.181835 122.441071
v 41.349765 161.058666 122.441071
v 19.226566 183.181835 122.441071
v -8.650265 197.385814 122.441071
v -39.551937 202.280101 122.441071
v -70.453671 197.385814 122.441132
v -98.330471 183.181835 122.441132
v -11.965878 2.280101 -194.219391
v 21.085239 7.174388 -193.574859
v 50.455433 21.378368 -193.058990
v 73.771518 43.501537 -192.648590
v 88.678928 71.378368 -192.394195
v 94.057132 102.280101 -192.270904
v 88.678897 133.181835 -192.394195
v 73.771473 161.058666 -192.648590
v 50.455417 183.181835 -193.058990
v 21.085224 197.385814 -193.574859
v -11.965863 202.280101 -194.219391
v -45.015149 197.385814 -194.863678
v -74.599209 183.181835 -195.410919
v -97.818890 161.058666 -195.807159
v -112.658314 133.181835 -196.051544
v -117.708393 102.280101 -196.126251
v -112.658314 71.378368 -196.051544
v -97.818898 43.501537 -195.807159
v -74.599224 21.378368 -195.410919
v -45.015164 7.174388 -194.863678
v 97.481205 7.174388 -437.318756
v 125.329654 21.378368 -426.528961
v 147.240146 43.501537 -417.838531
v 161.346042 71.378368 -412.188385
v 166.176548 102.280101 -410.243072
v 161.345981 133.181835 -412.188385
v 147.240085 161.058666 -417.838531
v 125.329624 183.181835 -426.528961
v 97.481205 197.385814 -437.318756
v 66.505024 202.280101 -449.160431
v 35.263767 197.385814 -460.848663
v 6.690281 183.181835 -471.139801
v -16.347714 161.058666 -478.851837
v -31.195553 133.181835 -483.652862
v -36.337490 102.280101 -485.246612
v -31.195553 71.378368 -483.652862
v -16.347714 43.501537 -478.851837
v 6.690281 21.378368 -471.139801
v 35.263752 7.174388 -460.848663
v 66.505024 2.280101 -449.160431
v -23.065655 183.181835 -328.190582
v -46.202206 161.058666 -331.465851
v -61.922322 133.181835 -333.662628
v -67.669209 102.280101 -334.457672
v -61.922322 71.378368 -333.662628
v -46.202206 43.501537 -331.465851
v -23.065670 21.378368 -328.190582
v 4.971012 7.174388 -324.024200
v 35.718280 2.280101 -319.270538
v 66.336414 7.174388 -314.393585
v 93.567081 21.378368 -309.904327
v 114.848606 43.501537 -306.325958
v 128.922306 71.378368 -303.921905
v 133.826633 102.280101 -303.081695
v 128.922245 133.181835 -303.921905
v 114.848514 161.058666 -306.325958
v 93.567051 183.181835 -309.904327
v 66.336399 197.385814 -314.393585
v 35.718280 202.280101 -319.270538
v 4.971027 197.385814 -324.024200
vt 0.648603 0.107966
vt 0.626409 0.064408
vt 0.591842 0.029841
vt 0.548284 0.007647
vt 0.500000 -0.000000
vt 0.451716 0.007647
vt 0.408159 0.029841
vt 0.373591 0.064409
vt 0.351397 0.107966
vt 0.343750 0.156250
vt 0.351397 0.204534
vt 0.373591 0.248091
vt 0.408159 0.282659
vt 0.451716 0.304853
vt 0.500000 0.312500
vt 0.548284 0.304853
vt 0.591841 0.282659
vt 0.626409 0.248091
vt 0.648603 0.204534
vt 0.656250 0.156250
vt 0.375000 0.312500
vt 0.387500 0.312500
vt 0.400000 0.312500
vt 0.412500 0.312500
vt 0.425000 0.312500
vt 0.437500 0.312500
vt 0.450000 0.312500
vt 0.462500 0.312500
vt 0.475000 0.312500
vt 0.487500 0.312500
vt 0.500000 0.312500
vt 0.512500 0.312500
vt 0.525000 0.312500
vt 0.537500 0.312500
vt 0.550000 0.312500
vt 0.562500 0.312500
vt 0.575000 0.312500
vt 0.587500 0.312500
vt 0.600000 0.312500
vt 0.612500 0.312500
vt 0.625000 0.312500
vt 0.375000 0.688440
vt 0.387500 0.688440
vt 0.400000 0.688440
vt 0.412500 0.688440
vt 0.425000 0.688440
vt 0.437500 0.688440
vt 0.450000 0.688440
vt 0.462500 0.688440
vt 0.475000 0.688440
vt 0.487500 0.688440
vt 0.500000 0.688440
vt 0.512500 0.688440
vt 0.525000 0.688440
vt 0.537500 0.688440
vt 0.550000 0.688440
vt 0.562500 0.688440
vt 0.575000 0.688440
vt 0.587500 0.688440
vt 0.600000 0.688440
vt 0.612500 0.688440
vt 0.625000 0.688440
vt 0.648603 0.795466
vt 0.626409 0.751908
vt 0.591842 0.717341
vt 0.548284 0.695147
vt 0.500000 0.687500
vt 0.451716 0.695147
vt 0.408159 0.717341
vt 0.373591 0.751909
vt 0.351397 0.795466
vt 0.343750 0.843750
vt 0.351397 0.892034
vt 0.373591 0.935591
vt 0.408159 0.970159
vt 0.451716 0.992353
vt 0.500000 1.000000
vt 0.548284 0.992353
vt 0.591841 0.970159
vt 0.626409 0.935591
vt 0.648603 0.892034
vt 0.656250 0.843750
vt 0.500000 0.150000
vt 0.500000 0.837500
vt 0.512500 0.462153
vt 0.500000 0.462153
vt 0.487500 0.462153
vt 0.475000 0.462153
vt 0.462500 0.462153
vt 0.450000 0.462153
vt 0.437500 0.462153
vt 0.425000 0.462153
vt 0.412500 0.462153
vt 0.400000 0.462153
vt 0.387500 0.462153
vt 0.625000 0.462153
vt 0.375000 0.462153
vt 0.612500 0.462153
vt 0.600000 0.462153
vt 0.587500 0.462153
vt 0.575000 0.462153
vt 0.562500 0.462153
vt 0.550000 0.462153
vt 0.537500 0.462153
vt 0.525000 0.462153
vt 0.425000 0.558079
vt 0.412500 0.558079
vt 0.400000 0.558079
vt 0.387500 0.558079
vt 0.625000 0.558079
vt 0.375000 0.558079
vt 0.612500 0.558079
vt 0.600000 0.558079
vt 0.587500 0.558079
vt 0.575000 0.558079
vt 0.562500 0.558079
vt 0.550000 0.558079
vt 0.537500 0.558079
vt 0.525000 0.558079
vt 0.512500 0.558079
vt 0.500000 0.558079
vt 0.487500 0.558079
vt 0.475000 0.558079
vt 0.462500 0.558079
vt 0.450000 0.558079
vt 0.437500 0.558079
vt 0.412500 0.636440
vt 0.400000 0.636440
vt 0.387500 0.636440
vt 0.625000 0.636440
vt 0.375000 0.636440
vt 0.612500 0.636440
vt 0.600000 0.636440
vt 0.587500 0.636440
vt 0.575000 0.636440
vt 0.562500 0.636440
vt 0.550000 0.636440
vt 0.537500 0.636440
vt 0.525000 0.636440
vt 0.512500 0.636440
vt 0.500000 0.636440
vt 0.487500 0.636440
vt 0.475000 0.636440
vt 0.462500 0.636440
vt 0.450000 0.636440
vt 0.437500 0.636440
vt 0.425000 0.636440
vt 0.525000 0.597952
vt 0.512500 0.597952
vt 0.500000 0.597952
vt 0.487500 0.597952
vt 0.475000 0.597952
vt 0.462500 0.597952
vt 0.450000 0.597952
vt 0.437500 0.597952
vt 0.425000 0.597952
vt 0.412500 0.597952
vt 0.400000 0.597952
vt 0.387500 0.597952
vt 0.625000 0.597952
vt 0.375000 0.597952
vt 0.612500 0.597952
vt 0.600000 0.597952
vt 0.587500 0.597952
vt 0.575000 0.597952
vt 0.562500 0.597952
vt 0.550000 0.597952
vt 0.537500 0.597952
vn 0.949185 -0.305878 -0.074076
vn 0.810080 -0.582901 -0.063220
vn 0.803048 -0.595873 -0.007018
vn 0.949054 -0.315027 -0.007383
vn 0.592238 -0.804437 -0.046219
vn 0.578074 -0.815964 -0.005850
vn 0.315943 -0.948458 -0.024657
vn 0.298057 -0.954542 -0.003521
vn 0.007756 -0.999970 -0.000605
vn -0.008053 -0.999968 0.000285
vn -0.301925 -0.953040 0.023563
vn -0.312532 -0.949891 0.005495
vn -0.582120 -0.811832 0.045430
vn -0.588564 -0.808371 0.011313
vn -0.804756 -0.590274 0.062805
vn -0.808908 -0.587704 0.016526
vn -0.947717 -0.310424 0.073961
vn -0.950842 -0.309026 0.020075
vn -0.996969 0.000000 0.077805
vn -0.999773 0.000000 0.021324
vn -0.947716 0.310425 0.073962
vn -0.950841 0.309027 0.020075
vn -0.804755 0.590276 0.062805
vn -0.808907 0.587705 0.016526
vn -0.582122 0.811832 0.045430
vn -0.588565 0.808371 0.011313
vn -0.301927 0.953040 0.023563
vn -0.312531 0.949892 0.005495
vn 0.007756 0.999970 -0.000605
vn -0.008050 0.999968 0.000285
vn 0.315943 0.948458 -0.024657
vn 0.298056 0.954542 -0.003521
vn 0.592238 0.804436 -0.046219
vn 0.578074 0.815963 -0.005850
vn 0.810080 0.582901 -0.063220
vn 0.803049 0.595872 -0.007018
vn 0.949184 0.305879 -0.074076
vn 0.949053 0.315029 -0.007383
vn 0.996969 0.000001 -0.077805
vn 0.999973 0.000001 -0.007406
vn 0.000000 0.000000 1.000000
vn 0.000000 0.000000 1.000000
vn 0.000000 -0.000000 1.000000
vn 0.000000 0.000000 1.000000
vn 0.000000 -0.000000 1.000000
vn 0.000000 -0.000000 1.000000
vn 0.000000 0.000000 1.000000
vn 0.000000 0.000000 1.000000
vn 0.000000 0.000000 1.000000
vn 0.000000 0.000000 1.000000
vn 0.000000 0.000000 1.000000
vn 0.000000 0.000001 1.000000
vn 0.000000 0.000000 1.000000
vn 0.000000 -0.000001 1.000000
vn 0.000000 -0.000000 1.000000
vn 0.000000 -0.000000 1.000000
vn 0.000000 0.000001 1.000000
vn 0.000000 0.000001 1.000000
vn 0.000000 -0.000001 1.000000
vn 0.000000 -0.000001 1.000000
vn 0.000000 0.000000 1.000000
vn 0.648229 0.061567 -0.758952
vn 0.656871 0.133149 -0.742154
vn 0.854187 -0.000000 -0.519965
vn 0.671125 0.196779 -0.714751
vn 0.694616 0.263222 -0.669495
vn 0.729403 0.331610 -0.598336
vn 0.775746 0.385831 -0.499352
vn 0.840935 0.418483 -0.343075
vn 0.911011 0.385728 -0.145855
vn 0.967549 0.247637 0.050245
vn 0.990815 0.000000 0.135222
vn 0.967548 -0.247640 0.050244
vn 0.911012 -0.385728 -0.145849
vn 0.840934 -0.418483 -0.343078
vn 0.775744 -0.385834 -0.499353
vn 0.729402 -0.331609 -0.598337
vn 0.694612 -0.263222 -0.669499
vn 0.671127 -0.196783 -0.714748
vn 0.656871 -0.133147 -0.742154
vn 0.648227 -0.061568 -0.758954
vn 0.644730 -0.000003 -0.764410
vn -0.792791 0.595786 -0.128537
vn -0.936966 0.316655 -0.147731
vn -0.988058 0.000000 -0.154082
vn -0.936966 -0.316655 -0.147731
vn -0.792791 -0.595786 -0.128537
vn -0.574144 -0.813058 -0.096411
vn -0.302821 -0.951564 -0.053148
vn -0.005526 -0.999980 -0.003185
vn 0.293805 -0.954624 0.048704
vn 0.569948 -0.815890 0.097374
vn 0.791346 -0.595903 0.136644
vn 0.934435 -0.316937 0.162428
vn 0.985132 0.000001 0.171800
vn 0.934434 0.316939 0.162428
vn 0.791347 0.595902 0.136644
vn 0.569950 0.815889 0.097374
vn 0.293803 0.954625 0.048704
vn -0.005522 0.999980 -0.003185
vn -0.302817 0.951566 -0.053148
vn -0.574144 0.813058 -0.096411
vn 0.002653 -0.999994 0.002215
vn 0.293562 -0.951402 0.093032
vn 0.559581 -0.809113 0.179461
vn 0.768332 -0.589098 0.250261
vn 0.901863 -0.313863 0.296872
vn 0.949546 0.000001 0.313628
vn 0.901863 0.313864 0.296872
vn 0.768332 0.589098 0.250261
vn 0.559581 0.809112 0.179461
vn 0.293561 0.951403 0.093032
vn 0.002653 0.999994 0.002215
vn -0.286988 0.954155 -0.085012
vn -0.548964 0.820224 -0.160842
vn -0.760622 0.610978 -0.219452
vn -0.906747 0.333260 -0.258356
vn -0.962055 -0.000000 -0.272856
vn -0.906747 -0.333260 -0.258356
vn -0.760623 -0.610978 -0.219452
vn -0.548966 -0.820223 -0.160842
vn -0.286990 -0.954154 -0.085012
vn 0.497467 -0.832039 0.245433
vn 0.246673 -0.961598 0.120338
vn 0.219625 -0.963573 0.152619
vn 0.451018 -0.836079 0.312339
vn 0.705700 -0.615506 0.350914
vn 0.645226 -0.620323 0.445962
vn 0.843739 -0.331855 0.421872
vn 0.774889 -0.335201 0.535898
vn 0.894007 0.000001 0.448053
vn 0.822043 0.000001 0.569425
vn 0.843740 0.331855 0.421872
vn 0.774891 0.335200 0.535896
vn 0.705700 0.615506 0.350913
vn 0.645225 0.620324 0.445962
vn 0.497466 0.832040 0.245434
vn 0.451016 0.836079 0.312340
vn 0.246674 0.961598 0.120338
vn 0.219628 0.963572 0.152619
vn -0.021457 0.999701 -0.011723
vn -0.028566 0.999383 -0.020417
vn -0.284413 0.948255 -0.141144
vn -0.270804 0.943250 -0.192212
vn -0.522318 0.812354 -0.259355
vn -0.488117 0.799730 -0.349534
vn -0.716204 0.600074 -0.356319
vn -0.660400 0.580381 -0.476476
vn -0.846580 0.323304 -0.422820
vn -0.770707 0.307191 -0.558251
vn -0.894438 -0.000000 -0.447192
vn -0.809590 -0.000000 -0.586995
vn -0.846581 -0.323303 -0.422819
vn -0.770708 -0.307190 -0.558250
vn -0.716204 -0.600074 -0.356319
vn -0.660399 -0.580383 -0.476475
vn -0.522318 -0.812354 -0.259355
vn -0.488116 -0.799731 -0.349533
vn -0.284414 -0.948255 -0.141145
vn -0.270804 -0.943249 -0.192212
vn -0.021458 -0.999701 -0.011723
vn -0.028568 -0.999383 -0.020417
s 1
g pCylinder7
usemtl lambert28SG
f 1/21/1 2/22/2 53/95/3 54/97/4
f 2/22/2 3/23/5 52/94/6 53/95/3
f 3/23/5 4/24/7 51/93/8 52/94/6
f 4/24/7 5/25/9 50/92/10 51/93/8
f 5/25/9 6/26/11 49/91/12 50/92/10
f 6/26/11 7/27/13 48/90/14 49/91/12
f 7/27/13 8/28/15 47/89/16 48/90/14
f 8/28/15 9/29/17 46/88/18 47/89/16
f 9/29/17 10/30/19 45/87/20 46/88/18
f 10/30/19 11/31/21 44/86/22 45/87/20
f 11/31/21 12/32/23 43/85/24 44/86/22
f 12/32/23 13/33/25 62/105/26 43/85/24
f 13/33/25 14/34/27 61/104/28 62/105/26
f 14/34/27 15/35/29 60/103/30 61/104/28
f 15/35/29 16/36/31 59/102/32 60/103/30
f 16/36/31 17/37/33 58/101/34 59/102/32
f 17/37/33 18/38/35 57/100/36 58/101/34
f 18/38/35 19/39/37 56/99/38 57/100/36
f 19/39/37 20/40/39 55/98/40 56/99/38
f 20/40/39 1/41/1 54/96/4 55/98/40
s 2
f 2/2/41 1/1/42 41/83/43
f 3/3/44 2/2/41 41/83/43
f 4/4/45 3/3/44 41/83/43
f 5/5/46 4/4/45 41/83/43
f 6/6/47 5/5/46 41/83/43
f 7/7/48 6/6/47 41/83/43
f 8/8/49 7/7/48 41/83/43
f 9/9/50 8/8/49 41/83/43
f 10/10/51 9/9/50 41/83/43
f 11/11/52 10/10/51 41/83/43
f 12/12/53 11/11/52 41/83/43
f 13/13/54 12/12/53 41/83/43
f 14/14/55 13/13/54 41/83/43
f 15/15/56 14/14/55 41/83/43
f 16/16/57 15/15/56 41/83/43
f 17/17/58 16/16/57 41/83/43
f 18/18/59 17/17/58 41/83/43
f 19/19/60 18/18/59 41/83/43
f 20/20/61 19/19/60 41/83/43
f 1/1/42 20/20/61 41/83/43
s 3
f 21/81/62 22/80/63 42/84/64
f 22/80/63 23/79/65 42/84/64
f 23/79/65 24/78/66 42/84/64
f 24/78/66 25/77/67 42/84/64
f 25/77/67 26/76/68 42/84/64
f 26/76/68 27/75/69 42/84/64
f 27/75/69 28/74/70 42/84/64
f 28/74/70 29/73/71 42/84/64
f 29/73/71 30/72/72 42/84/64
f 30/72/72 31/71/73 42/84/64
f 31/71/73 32/70/74 42/84/64
f 32/70/74 33/69/75 42/84/64
f 33/69/75 34/68/76 42/84/64
f 34/68/76 35/67/77 42/84/64
f 35/67/77 36/66/78 42/84/64
f 36/66/78 37/65/79 42/84/64
f 37/65/79 38/64/80 42/84/64
f 38/64/80 39/63/81 42/84/64
f 39/63/81 40/82/82 42/84/64
f 40/82/82 21/81/62 42/84/64
s 1
f 44/86/22 43/85/24 76/120/83 77/121/84
f 45/87/20 44/86/22 77/121/84 78/122/85
f 46/88/18 45/87/20 78/122/85 79/123/86
f 47/89/16 46/88/18 79/123/86 80/124/87
f 48/90/14 47/89/16 80/124/87 81/125/88
f 49/91/12 48/90/14 81/125/88 82/126/89
f 50/92/10 49/91/12 82/126/89 63/106/90
f 51/93/8 50/92/10 63/106/90 64/107/91
f 52/94/6 51/93/8 64/107/91 65/108/92
f 53/95/3 52/94/6 65/108/92 66/109/93
f 54/97/4 53/95/3 66/109/93 67/111/94
f 55/98/40 54/96/4 67/110/94 68/112/95
f 56/99/38 55/98/40 68/112/95 69/113/96
f 57/100/36 56/99/38 69/113/96 70/114/97
f 58/101/34 57/100/36 70/114/97 71/115/98
f 59/102/32 58/101/34 71/115/98 72/116/99
f 60/103/30 59/102/32 72/116/99 73/117/100
f 61/104/28 60/103/30 73/117/100 74/118/101
f 62/105/26 61/104/28 74/118/101 75/119/102
f 43/85/24 62/105/26 75/119/102 76/120/83
f 64/107/91 63/106/90 111/156/103 112/157/104
f 65/108/92 64/107/91 112/157/104 113/158/105
f 66/109/93 65/108/92 113/158/105 114/159/106
f 67/111/94 66/109/93 114/159/106 115/161/107
f 68/112/95 67/110/94 115/160/107 116/162/108
f 69/113/96 68/112/95 116/162/108 117/163/109
f 70/114/97 69/113/96 117/163/109 118/164/110
f 71/115/98 70/114/97 118/164/110 119/165/111
f 72/116/99 71/115/98 119/165/111 120/166/112
f 73/117/100 72/116/99 120/166/112 121/167/113
f 74/118/101 73/117/100 121/167/113 122/168/114
f 75/119/102 74/118/101 122/168/114 103/148/115
f 76/120/83 75/119/102 103/148/115 104/149/116
f 77/121/84 76/120/83 104/149/116 105/150/117
f 78/122/85 77/121/84 105/150/117 106/151/118
f 79/123/86 78/122/85 106/151/118 107/152/119
f 80/124/87 79/123/86 107/152/119 108/153/120
f 81/125/88 80/124/87 108/153/120 109/154/121
f 82/126/89 81/125/88 109/154/121 110/155/122
f 63/106/90 82/126/89 110/155/122 111/156/103
f 84/128/123 83/127/124 24/45/125 23/44/126
f 85/129/127 84/128/123 23/44/126 22/43/128
f 86/131/129 85/129/127 22/43/128 21/42/130
f 87/132/131 86/130/129 21/62/130 40/61/132
f 88/133/133 87/132/131 40/61/132 39/60/134
f 89/134/135 88/133/133 39/60/134 38/59/136
f 90/135/137 89/134/135 38/59/136 37/58/138
f 91/136/139 90/135/137 37/58/138 36/57/140
f 92/137/141 91/136/139 36/57/140 35/56/142
f 93/138/143 92/137/141 35/56/142 34/55/144
f 94/139/145 93/138/143 34/55/144 33/54/146
f 95/140/147 94/139/145 33/54/146 32/53/148
f 96/141/149 95/140/147 32/53/148 31/52/150
f 97/142/151 96/141/149 31/52/150 30/51/152
f 98/143/153 97/142/151 30/51/152 29/50/154
f 99/144/155 98/143/153 29/50/154 28/49/156
f 100/145/157 99/144/155 28/49/156 27/48/158
f 101/146/159 100/145/157 27/48/158 26/47/160
f 102/147/161 101/146/159 26/47/160 25/46/162
f 83/127/124 102/147/161 25/46/162 24/45/125
f 104/149/116 103/148/115 94/139/145 95/140/147
f 105/150/117 104/149/116 95/140/147 96/141/149
f 106/151/118 105/150/117 96/141/149 97/142/151
f 107/152/119 106/151/118 97/142/151 98/143/153
f 108/153/120 107/152/119 98/143/153 99/144/155
f 109/154/121 108/153/120 99/144/155 100/145/157
f 110/155/122 109/154/121 100/145/157 101/146/159
f 111/156/103 110/155/122 101/146/159 102/147/161
f 112/157/104 111/156/103 102/147/161 83/127/124
f 113/158/105 112/157/104 83/127/124 84/128/123
f 114/159/106 113/158/105 84/128/123 85/129/127
f 115/161/107 114/159/106 85/129/127 86/131/129
f 116/162/108 115/160/107 86/130/129 87/132/131
f 117/163/109 116/162/108 87/132/131 88/133/133
f 118/164/110 117/163/109 88/133/133 89/134/135
f 119/165/111 118/164/110 89/134/135 90/135/137
f 120/166/112 119/165/111 90/135/137 91/136/139
f 121/167/113 120/166/112 91/136/139 92/137/141
f 122/168/114 121/167/113 92/137/141 93/138/143
f 103/148/115 122/168/114 93/138/143 94/139/145
