# This file uses meters as units for non-parametric coordinates.

mtllib trunk_fantasy.mtl
g default
v 225.746778 36.469141 -73.785681
v 191.775126 37.439521 -139.844624
v 139.050989 38.350157 -192.171841
v 72.735409 39.111910 -225.645168
v -0.680175 39.650213 -236.988013
v -74.009353 39.912375 -225.090055
v -140.074142 39.872733 -191.115952
v -192.407660 39.535166 -138.391322
v -225.887125 38.932720 -72.077248
v -237.235403 38.124365 1.335005
v -225.341571 37.189229 74.659339
v -191.369938 36.218849 140.718255
v -138.645837 35.308214 193.045437
v -72.330294 34.546461 226.518763
v 1.085266 34.008158 237.861627
v 74.414409 33.745996 225.963651
v 140.479185 33.785639 191.989566
v 192.812704 34.123205 139.264981
v 226.292186 34.725651 72.950916
v 237.640447 35.534005 -0.461319
v 165.700079 430.273816 -87.941601
v 141.076493 430.977174 -135.822967
v 102.860536 431.637229 -173.751193
v 54.793164 432.189368 -198.013579
v 1.579503 432.579545 -206.235157
v -51.571526 432.769568 -197.611231
v -99.457142 432.740834 -172.985863
v -137.389928 432.496157 -134.769579
v -161.656771 432.059486 -86.703274
v -169.882293 431.473568 -33.492031
v -161.261339 430.795756 19.655500
v -136.637771 430.092398 67.536834
v -98.421869 429.432343 105.465051
v -50.354493 428.880204 129.727428
v 2.859144 428.490027 137.949015
v 56.010143 428.300005 129.325062
v 103.895755 428.328738 104.699730
v 141.828541 428.573416 66.483473
v 166.095384 429.010085 18.417186
v 174.320906 429.596004 -34.794056
v 0.202549 36.829185 0.436843
v 2.219331 430.534768 -34.143039
vt 0.648603 0.107966
vt 0.626409 0.064408
vt 0.591842 0.029841
vt 0.548284 0.007647
vt 0.500000 -0.000000
vt 0.451716 0.007647
vt 0.408159 0.029841
vt 0.373591 0.064409
vt 0.351397 0.107966
vt 0.343750 0.156250
vt 0.351397 0.204534
vt 0.373591 0.248091
vt 0.408159 0.282659
vt 0.451716 0.304853
vt 0.500000 0.312500
vt 0.548284 0.304853
vt 0.591841 0.282659
vt 0.626409 0.248091
vt 0.648603 0.204534
vt 0.656250 0.156250
vt 0.375000 0.312500
vt 0.387500 0.312500
vt 0.400000 0.312500
vt 0.412500 0.312500
vt 0.425000 0.312500
vt 0.437500 0.312500
vt 0.450000 0.312500
vt 0.462500 0.312500
vt 0.475000 0.312500
vt 0.487500 0.312500
vt 0.500000 0.312500
vt 0.512500 0.312500
vt 0.525000 0.312500
vt 0.537500 0.312500
vt 0.550000 0.312500
vt 0.562500 0.312500
vt 0.575000 0.312500
vt 0.587500 0.312500
vt 0.600000 0.312500
vt 0.612500 0.312500
vt 0.625000 0.312500
vt 0.375000 0.688440
vt 0.387500 0.688440
vt 0.400000 0.688440
vt 0.412500 0.688440
vt 0.425000 0.688440
vt 0.437500 0.688440
vt 0.450000 0.688440
vt 0.462500 0.688440
vt 0.475000 0.688440
vt 0.487500 0.688440
vt 0.500000 0.688440
vt 0.512500 0.688440
vt 0.525000 0.688440
vt 0.537500 0.688440
vt 0.550000 0.688440
vt 0.562500 0.688440
vt 0.575000 0.688440
vt 0.587500 0.688440
vt 0.600000 0.688440
vt 0.612500 0.688440
vt 0.625000 0.688440
vt 0.648603 0.795466
vt 0.626409 0.751908
vt 0.591842 0.717341
vt 0.548284 0.695147
vt 0.500000 0.687500
vt 0.451716 0.695147
vt 0.408159 0.717341
vt 0.373591 0.751909
vt 0.351397 0.795466
vt 0.343750 0.843750
vt 0.351397 0.892034
vt 0.373591 0.935591
vt 0.408159 0.970159
vt 0.451716 0.992353
vt 0.500000 1.000000
vt 0.548284 0.992353
vt 0.591841 0.970159
vt 0.626409 0.935591
vt 0.648603 0.892034
vt 0.656250 0.843750
vt 0.500000 0.150000
vt 0.500000 0.837500
vn 0.944830 0.133311 -0.299206
vn 0.807440 0.109944 -0.579615
vn 0.798170 0.108882 -0.592511
vn 0.939258 0.131825 -0.316887
vn 0.587826 0.091739 -0.803769
vn 0.578457 0.091196 -0.810599
vn 0.308020 0.080696 -0.947951
vn 0.302205 0.080563 -0.949832
vn -0.003346 0.078046 -0.996944
vn -0.003346 0.078046 -0.996944
vn -0.314284 0.084091 -0.945597
vn -0.308485 0.083894 -0.947522
vn -0.592854 0.098179 -0.799303
vn -0.583544 0.097535 -0.806203
vn -0.810555 0.118770 -0.573494
vn -0.801395 0.117607 -0.586460
vn -0.945556 0.143622 -0.292056
vn -0.940134 0.142077 -0.309779
vn -0.985308 0.170085 0.015486
vn -0.985704 0.168443 -0.003824
vn -0.927821 0.195451 0.317722
vn -0.933819 0.194029 0.300558
vn -0.781212 0.217291 0.585228
vn -0.790468 0.216312 0.573035
vn -0.561772 0.233684 0.793601
vn -0.570799 0.233200 0.787278
vn -0.291362 0.243320 0.925150
vn -0.296858 0.243205 0.923432
vn 0.005006 0.245499 0.969384
vn 0.005006 0.245499 0.969384
vn 0.300990 0.240089 0.922910
vn 0.306471 0.239914 0.921150
vn 0.570276 0.227509 0.789319
vn 0.579249 0.226927 0.782927
vn 0.787941 0.208732 0.579292
vn 0.797093 0.207652 0.567030
vn 0.932275 0.185305 0.310686
vn 0.938127 0.183818 0.293477
vn 0.987194 0.159326 0.008026
vn 0.987426 0.157680 -0.011287
vn -0.005499 -0.999915 -0.011860
vn -0.005499 -0.999915 -0.011860
vn -0.005499 -0.999915 -0.011860
vn -0.005499 -0.999915 -0.011860
vn -0.005499 -0.999915 -0.011860
vn -0.005499 -0.999915 -0.011860
vn -0.005499 -0.999915 -0.011860
vn -0.005499 -0.999915 -0.011860
vn -0.005499 -0.999915 -0.011860
vn -0.005499 -0.999915 -0.011860
vn -0.005499 -0.999915 -0.011860
vn -0.005499 -0.999915 -0.011860
vn -0.005499 -0.999915 -0.011861
vn -0.005499 -0.999915 -0.011860
vn -0.005499 -0.999915 -0.011860
vn -0.005499 -0.999915 -0.011860
vn -0.005499 -0.999915 -0.011860
vn -0.005499 -0.999915 -0.011860
vn -0.005499 -0.999915 -0.011860
vn -0.005499 -0.999915 -0.011860
vn -0.005499 -0.999915 -0.011860
vn 0.005499 0.999915 0.011861
vn 0.005499 0.999915 0.011861
vn 0.005499 0.999915 0.011860
vn 0.005499 0.999915 0.011860
vn 0.005499 0.999915 0.011860
vn 0.005499 0.999915 0.011861
vn 0.005499 0.999915 0.011860
vn 0.005499 0.999915 0.011860
vn 0.005499 0.999915 0.011861
vn 0.005499 0.999915 0.011860
vn 0.005499 0.999915 0.011860
vn 0.005499 0.999915 0.011860
vn 0.005499 0.999915 0.011860
vn 0.005499 0.999915 0.011860
vn 0.005499 0.999915 0.011860
vn 0.005499 0.999915 0.011860
vn 0.005499 0.999915 0.011860
vn 0.005499 0.999915 0.011860
vn 0.005499 0.999915 0.011860
vn 0.005499 0.999915 0.011860
vn 0.005499 0.999915 0.011860
s 1
g pCylinder14 group1
usemtl lambert27SG
f 1/21/1 2/22/2 22/43/3 21/42/4
f 2/22/2 3/23/5 23/44/6 22/43/3
f 3/23/5 4/24/7 24/45/8 23/44/6
f 4/24/7 5/25/9 25/46/10 24/45/8
f 5/25/9 6/26/11 26/47/12 25/46/10
f 6/26/11 7/27/13 27/48/14 26/47/12
f 7/27/13 8/28/15 28/49/16 27/48/14
f 8/28/15 9/29/17 29/50/18 28/49/16
f 9/29/17 10/30/19 30/51/20 29/50/18
f 10/30/19 11/31/21 31/52/22 30/51/20
f 11/31/21 12/32/23 32/53/24 31/52/22
f 12/32/23 13/33/25 33/54/26 32/53/24
f 13/33/25 14/34/27 34/55/28 33/54/26
f 14/34/27 15/35/29 35/56/30 34/55/28
f 15/35/29 16/36/31 36/57/32 35/56/30
f 16/36/31 17/37/33 37/58/34 36/57/32
f 17/37/33 18/38/35 38/59/36 37/58/34
f 18/38/35 19/39/37 39/60/38 38/59/36
f 19/39/37 20/40/39 40/61/40 39/60/38
f 20/40/39 1/41/1 21/62/4 40/61/40
s 2
f 2/2/41 1/1/42 41/83/43
f 3/3/44 2/2/41 41/83/43
f 4/4/45 3/3/44 41/83/43
f 5/5/46 4/4/45 41/83/43
f 6/6/47 5/5/46 41/83/43
f 7/7/48 6/6/47 41/83/43
f 8/8/49 7/7/48 41/83/43
f 9/9/50 8/8/49 41/83/43
f 10/10/51 9/9/50 41/83/43
f 11/11/52 10/10/51 41/83/43
f 12/12/53 11/11/52 41/83/43
f 13/13/54 12/12/53 41/83/43
f 14/14/55 13/13/54 41/83/43
f 15/15/56 14/14/55 41/83/43
f 16/16/57 15/15/56 41/83/43
f 17/17/58 16/16/57 41/83/43
f 18/18/59 17/17/58 41/83/43
f 19/19/60 18/18/59 41/83/43
f 20/20/61 19/19/60 41/83/43
f 1/1/42 20/20/61 41/83/43
s 3
f 21/81/62 22/80/63 42/84/64
f 22/80/63 23/79/65 42/84/64
f 23/79/65 24/78/66 42/84/64
f 24/78/66 25/77/67 42/84/64
f 25/77/67 26/76/68 42/84/64
f 26/76/68 27/75/69 42/84/64
f 27/75/69 28/74/70 42/84/64
f 28/74/70 29/73/71 42/84/64
f 29/73/71 30/72/72 42/84/64
f 30/72/72 31/71/73 42/84/64
f 31/71/73 32/70/74 42/84/64
f 32/70/74 33/69/75 42/84/64
f 33/69/75 34/68/76 42/84/64
f 34/68/76 35/67/77 42/84/64
f 35/67/77 36/66/78 42/84/64
f 36/66/78 37/65/79 42/84/64
f 37/65/79 38/64/80 42/84/64
f 38/64/80 39/63/81 42/84/64
f 39/63/81 40/82/82 42/84/64
f 40/82/82 21/81/62 42/84/64
