# This file uses centimeters as units for non-parametric coordinates.

mtllib floor_panel.mtl
g default
v 75.000000 2.009577 2.589402
v 125.000000 2.009577 2.589402
v 75.000000 2.009577 -2.589402
v 125.000000 2.009577 -2.589402
vt 0.000000 0.000000
vt 1.000000 0.000000
vt 0.000000 1.000000
vt 1.000000 1.000000
vn 0.000000 1.000000 0.000000
vn 0.000000 1.000000 0.000000
vn 0.000000 1.000000 0.000000
vn 0.000000 1.000000 0.000000
s off
g Path1 Group_3_Level
usemtl lambert2SG
f 1/1/1 2/2/2 4/4/3 3/3/4
